<?xml version="1.0" encoding="UTF-8"?>
<svg version="1.1" xmlns="http://www.w3.org/2000/svg" width="270" height="360">
<path d="M0 0 C4.22381394 0.50283499 6.76576244 3.08841604 9.75 5.875 C10.27787109 6.36605225 10.80574219 6.85710449 11.34960938 7.36303711 C21.1977286 16.76883064 28.68246776 27.99773433 29.125 41.9375 C29.09767237 44.37876826 28.91220158 46.51581569 28.5 48.9375 C27.34346587 56.02127156 27.19405555 61.03396445 31.47265625 67.04296875 C31.97667969 67.68878906 32.48070312 68.33460938 33 69 C33.47308594 69.63550781 33.94617188 70.27101563 34.43359375 70.92578125 C38.50875186 75.99686329 43.32566929 79.7321545 48.64453125 83.41162109 C51.38161541 85.37990662 52.85262402 86.53243991 53.8828125 89.80078125 C53.92148437 90.52652344 53.96015625 91.25226563 54 92 C50.3538279 94.40835722 47.12682461 95.65528562 42.875 96.625 C39.85424274 97.32557463 36.9429383 98.01902057 34 99 C34.16048828 100.24716797 34.16048828 100.24716797 34.32421875 101.51953125 C34.44410156 102.60621094 34.56398437 103.69289063 34.6875 104.8125 C34.87892578 106.43091797 34.87892578 106.43091797 35.07421875 108.08203125 C35 111 35 111 33.515625 112.67578125 C33.01546875 113.11277344 32.5153125 113.54976563 32 114 C32.0309375 115.670625 32.0309375 115.670625 32.0625 117.375 C32 121 32 121 30.0625 123.25 C27.73065663 126.35912449 27.70276665 127.53272177 27.5 131.3125 C27.1723567 136.59040625 26.3579684 140.79738924 23 145 C16.53186961 149.31208693 8.66839199 148.76285176 1.203125 147.54296875 C-0.59795878 147.18119036 -2.39874162 146.81791053 -4.19921875 146.453125 C-11.17993366 145.32374853 -18.44064006 145.08472892 -25 148 C-25.90230535 151.21963877 -25.90230535 151.21963877 -26 155 C-24.2304264 158.09588245 -24.2304264 158.09588245 -21.5625 160.9375 C-7.37638505 177.94729631 -4.40688574 195.35589182 -5 217 C-9 217 -9 217 -11.41796875 214.71875 C-12.34966588 213.65322357 -13.27217446 212.57962274 -14.1875 211.5 C-21.00667244 203.7875332 -28.44051501 196.82377815 -36.00048828 189.84667969 C-37.80743778 188.17784379 -39.60632541 186.5008917 -41.40234375 184.8203125 C-46.76077753 179.83157107 -52.20095251 175.14954954 -58.13671875 170.8515625 C-60.38138637 168.62101229 -60.68565983 167.10077929 -61 164 C-55.93605627 159.53299798 -50.69568861 155.52517548 -45.1875 151.625 C-37.34022394 146.0056597 -29.73174355 140.23610045 -22.4296875 133.91796875 C-21.80094727 133.37470947 -21.17220703 132.8314502 -20.52441406 132.27172852 C-19.28531439 131.19747051 -18.05008683 130.11872506 -16.81933594 129.03491211 C-13.96527593 126.54957588 -11.41309673 124.66648854 -8 123 C-6.71745356 120.46229997 -6.71745356 120.46229997 -6 118 C-10.04095101 120.57845566 -13.50864227 123.25116541 -17 126.5625 C-23.37482996 132.4331544 -30.122619 137.73676231 -37 143 C-38.22879883 143.94166016 -38.22879883 143.94166016 -39.48242188 144.90234375 C-55.46030666 157.13522836 -55.46030666 157.13522836 -61.5546875 161.63671875 C-67.86146216 166.29570215 -73.87683469 171.19438144 -79.82421875 176.296875 C-82.79417764 178.84074475 -85.8278593 181.29894838 -88.875 183.75 C-92.5903726 186.77176469 -96.02295258 189.90170384 -99.34765625 193.34375 C-101.03757536 195.03766419 -102.80059906 196.5774832 -104.625 198.125 C-108.54234965 201.50255737 -112.21339219 205.10047338 -115.875 208.75 C-116.73279053 209.60102295 -116.73279053 209.60102295 -117.60791016 210.46923828 C-120.01231761 212.88226625 -122.10475767 215.15713651 -124 218 C-124.99 217.67 -125.98 217.34 -127 217 C-127.95933556 192.24381295 -121.18722085 173.65936704 -104.33349609 155.43896484 C-103.67341553 154.72667725 -103.67341553 154.72667725 -103 154 C-101.84951172 152.71029297 -101.84951172 152.71029297 -100.67578125 151.39453125 C-91.18768687 141.26208411 -79.18182661 133.99719193 -67.5625 126.5625 C-52.80462232 117.11247471 -38.93435137 106.83532699 -26 95 C-25.22269531 94.29488281 -24.44539063 93.58976562 -23.64453125 92.86328125 C-7.65256018 77.63739263 4.19442695 56.96547124 6.203125 34.75390625 C6.43752043 23.79592012 3.59266557 13.26475878 0 3 C0 2.01 0 1.02 0 0 Z " fill="#1667A6" transform="translate(206,88)"/>
<path d="M0 0 C6.06527711 0.79409949 9.40624803 6.52602162 13 11 C24.38161505 26.49411267 27.22818535 43.79591171 24.46875 62.625 C23.78308224 65.48691761 22.97169207 68.2231386 22 71 C21.7215625 71.84433594 21.443125 72.68867188 21.15625 73.55859375 C14.02543412 93.26054624 -2.66120574 110.41622275 -19 123 C-19.97324219 123.77730469 -20.94648438 124.55460937 -21.94921875 125.35546875 C-30.25046308 131.90688994 -38.94140126 137.78001577 -47.79736328 143.55273438 C-49.91970051 144.94723837 -52.02217698 146.36743592 -54.12109375 147.796875 C-55.37218027 148.63573825 -56.62347031 149.47429807 -57.875 150.3125 C-58.96554688 151.05113281 -60.05609375 151.78976563 -61.1796875 152.55078125 C-64 154 -64 154 -66.12109375 153.91796875 C-75.17181032 149.49610099 -84.13079832 140.72781433 -89 132 C-87.58074219 131.30777344 -87.58074219 131.30777344 -86.1328125 130.6015625 C-50.76144928 113.21471729 -11.50421322 90.35628918 2.10546875 50.921875 C2.40066406 49.95765625 2.69585937 48.9934375 3 48 C3.24363281 47.22140625 3.48726563 46.4428125 3.73828125 45.640625 C7.26126502 31.74041692 5.33940887 17.40162818 1 4 C0.65299155 2.67016015 0.31240119 1.33839246 0 0 Z " fill="#32C0DB" transform="translate(184,70)"/>
<path d="M0 0 C0.9075 0.4125 1.815 0.825 2.75 1.25 C8.38451847 5.63240326 12.49326139 12.01421189 14 19 C15.49053263 31.23708884 10.83969341 39.41923605 3.609375 48.9453125 C3.07828125 49.62335938 2.5471875 50.30140625 2 51 C2.721875 51.70125 3.44375 52.4025 4.1875 53.125 C12.73670213 61.67420213 12.73670213 61.67420213 13.375 67.3125 C13 71 13 71 11.0625 73.9375 C7.52826314 76.31770033 5.53537368 76.78621779 1.34765625 76.5625 C-3.4674701 75.40879252 -7.35506916 72.04934754 -10.4140625 68.23828125 C-11.98380557 66.73805199 -11.98380557 66.73805199 -14.42578125 67.09375 C-17.3505736 68.12341893 -18.94116756 69.37967073 -21.1875 71.5 C-25.18892762 75.23364565 -27.26904985 76.383369 -32.9609375 76.26953125 C-36.37481116 75.81827209 -37.83387069 74.62561128 -40 72 C-40.98886355 69.26608312 -41.28042503 66.89398636 -41 64 C-38.57756266 59.15512531 -34.87924821 55.70291875 -31 52 C-32.48946145 48.77653866 -34.34201422 46.04907736 -36.4375 43.1875 C-42.08403566 35.15791499 -45.13371065 27.43494811 -43.4375 17.5 C-41.24983183 9.25306671 -36.46005493 3.50919555 -29.21875 -0.84765625 C-19.16993952 -6.06666873 -9.83193657 -4.76646656 0 0 Z M-23 17 C-24.61796458 19.26615536 -25.76537012 21.48325447 -27 24 C-23.30620592 30.08867157 -19.6249793 34.61251614 -14 39 C-8.8335116 34.21569019 -4.67935956 30.16107732 -3.5 22.9375 C-4.205952 18.79003198 -5.62373921 17.46185683 -9 15 C-14.28611033 13.23072693 -18.42125967 13.67000703 -23 17 Z " fill="#91C549" transform="translate(155,57)"/>
<path d="M0 0 C0.56976563 0.49113281 1.13953125 0.98226562 1.7265625 1.48828125 C1.7265625 2.14828125 1.7265625 2.80828125 1.7265625 3.48828125 C2.3865625 3.48828125 3.0465625 3.48828125 3.7265625 3.48828125 C5.39720134 5.64148121 6.91807694 7.77948152 8.4140625 10.05078125 C8.85669434 10.71811279 9.29932617 11.38544434 9.75537109 12.07299805 C20.7265625 29.03370606 20.7265625 29.03370606 20.7265625 35.48828125 C17.12738896 34.16767195 13.85057708 32.49423473 10.51000977 30.61914062 C3.75904034 26.83991046 -2.62125103 24.01553676 -10.2734375 22.48828125 C-9.32984375 22.94976562 -8.38625 23.41125 -7.4140625 23.88671875 C1.47145372 28.35445902 9.798178 33.22444424 16.7265625 40.48828125 C16.7265625 41.47828125 16.7265625 42.46828125 16.7265625 43.48828125 C0.64227744 47.81866569 -15.5478813 46.14155384 -30.2578125 38.34375 C-45.84799979 28.75134202 -56.64686833 13.91473793 -64.2734375 -2.51171875 C-64.2734375 -3.17171875 -64.2734375 -3.83171875 -64.2734375 -4.51171875 C-58.5234375 -4.63671875 -58.5234375 -4.63671875 -56.2734375 -3.51171875 C-53.46957145 -3.38480692 -50.70272665 -3.32194531 -47.8984375 -3.32421875 C-47.0827832 -3.32357422 -46.26712891 -3.32292969 -45.42675781 -3.32226562 C-39.86464059 -3.37057458 -34.66884103 -4.0060876 -29.203125 -5.05078125 C-18.55504832 -6.72607865 -9.08861158 -6.04345821 0 0 Z " fill="#2FA75B" transform="translate(76.2734375,156.51171875)"/>
<path d="M0 0 C0.66 0 1.32 0 2 0 C1.59077284 2.93279462 1.17741584 5.57405832 0.03515625 8.31640625 C-6.61465648 25.55573208 -2.63823205 46.1454048 4.53515625 62.5 C12.7498132 78.657434 25.52990642 92.46860873 39.70825195 103.62524414 C41 105 41 105 41 108 C37.58434853 109.96010801 34.16730459 111.91777574 30.75 113.875 C29.29787109 114.70837891 29.29787109 114.70837891 27.81640625 115.55859375 C26.88183594 116.09355469 25.94726562 116.62851563 24.984375 117.1796875 C23.69611816 117.91807861 23.69611816 117.91807861 22.38183594 118.67138672 C16.35112737 122.03537975 16.35112737 122.03537975 13.9453125 121.79296875 C5.58530495 118.38517451 -0.13685246 107.20513147 -5 100 C-5.58136719 99.14148438 -6.16273437 98.28296875 -6.76171875 97.3984375 C-17.5609283 80.44849705 -24.20657202 57.86013462 -20.6015625 37.78076172 C-17.29074333 23.90397252 -10.13162121 10.13162121 0 0 Z " fill="#32C1DA" transform="translate(94,70)"/>
<path d="M0 0 C3.10016202 1.36691447 4.97393918 3.47955455 7.21484375 5.9765625 C7.87484375 5.6465625 8.53484375 5.3165625 9.21484375 4.9765625 C9.70984375 6.1521875 9.70984375 6.1521875 10.21484375 7.3515625 C11.72480795 10.41402511 13.68068672 12.76763134 15.90234375 15.3515625 C29.37113578 31.85207524 31.78137311 49.30259895 31.21484375 69.9765625 C27.21484375 69.9765625 27.21484375 69.9765625 24.796875 67.6953125 C23.86517787 66.62978607 22.94266929 65.55618524 22.02734375 64.4765625 C15.20817131 56.7640957 7.77432874 49.80034065 0.21435547 42.82324219 C-1.59259403 41.15440629 -3.39148166 39.4774542 -5.1875 37.796875 C-10.54593378 32.80813357 -15.98610876 28.12611204 -21.921875 23.828125 C-24.16654262 21.59757479 -24.47081608 20.07734179 -24.78515625 16.9765625 C-20.03520458 12.82609256 -15.19429701 8.84024806 -10.16015625 5.0390625 C-9.19722656 4.28012695 -9.19722656 4.28012695 -8.21484375 3.50585938 C-3.50744128 -0.02951563 -3.50744128 -0.02951563 0 0 Z " fill="#30A85C" transform="translate(169.78515625,235.0234375)"/>
<path d="M0 0 C0.56976563 0.49113281 1.13953125 0.98226562 1.7265625 1.48828125 C1.7265625 2.14828125 1.7265625 2.80828125 1.7265625 3.48828125 C2.3865625 3.48828125 3.0465625 3.48828125 3.7265625 3.48828125 C5.43266769 5.72584576 7.00043525 7.9512825 8.5390625 10.30078125 C8.98612549 10.97842529 9.43318848 11.65606934 9.89379883 12.35424805 C13.38448877 17.74825718 16.80875841 23.31643899 18.7265625 29.48828125 C18.2315625 30.47828125 18.2315625 30.47828125 17.7265625 31.48828125 C12.69009066 29.63578586 8.09576508 27.02771196 3.4296875 24.41015625 C-2.30554543 21.27333497 -7.9740367 19.56883416 -14.4609375 18.67578125 C-29.42659702 16.21593006 -42.55341339 12.97454181 -55.2734375 4.48828125 C-56.2634375 3.82828125 -57.2534375 3.16828125 -58.2734375 2.48828125 C-58.2734375 1.82828125 -58.2734375 1.16828125 -58.2734375 0.48828125 C-58.9334375 0.48828125 -59.5934375 0.48828125 -60.2734375 0.48828125 C-60.6034375 -0.17171875 -60.9334375 -0.83171875 -61.2734375 -1.51171875 C-62.2634375 -1.01671875 -62.2634375 -1.01671875 -63.2734375 -0.51171875 C-63.6034375 -1.83171875 -63.9334375 -3.15171875 -64.2734375 -4.51171875 C-58.5234375 -4.63671875 -58.5234375 -4.63671875 -56.2734375 -3.51171875 C-53.46957145 -3.38480692 -50.70272665 -3.32194531 -47.8984375 -3.32421875 C-47.0827832 -3.32357422 -46.26712891 -3.32292969 -45.42675781 -3.32226562 C-39.86464059 -3.37057458 -34.66884103 -4.0060876 -29.203125 -5.05078125 C-18.55504832 -6.72607865 -9.08861158 -6.04345821 0 0 Z " fill="#90C749" transform="translate(76.2734375,156.51171875)"/>
<path d="M0 0 C0.9075 0.4125 1.815 0.825 2.75 1.25 C8.36287317 5.61556802 12.53550168 12.02209624 14 19 C14.47661702 24.4394863 14.82799226 29.17776619 12 34 C12 33.01 12 32.02 12 31 C11.4225 30.73445313 10.845 30.46890625 10.25 30.1953125 C7.19220045 28.57085649 4.6748592 26.42595927 2 24.2421875 C-0.17393022 22.64825957 -0.17393022 22.64825957 -4 23 C-4.0825 22.21625 -4.165 21.4325 -4.25 20.625 C-4.73631774 17.96357609 -4.73631774 17.96357609 -6.5625 16.75 C-11.35525671 15.27530563 -15.22577026 14.52928599 -20.0625 15.8125 C-23.72086801 18.5368166 -25.6419429 21.69241499 -28.12109375 25.48046875 C-30.85269937 29.14343262 -34.17791824 31.55783866 -38 34 C-37.67 36.31 -37.34 38.62 -37 41 C-41.43891897 37.40658941 -43.00315528 32.0714139 -43.8125 26.625 C-44.42711694 18.74186973 -42.43229395 12.49060278 -37.8359375 6.078125 C-27.5307589 -5.58646014 -13.31593818 -6.4554906 0 0 Z " fill="#91C747" transform="translate(155,57)"/>
<path d="M0 0 C2.70376322 2.62424078 5.17968164 5.22030501 7.5 8.1875 C10.93004611 12.32346589 15.20358982 15.31599827 19.59375 18.36010742 C22.34233952 20.34506637 23.84788391 21.51885749 24.88671875 24.8046875 C24.94279297 25.89136719 24.94279297 25.89136719 25 27 C21.3538279 29.40835722 18.12682461 30.65528562 13.875 31.625 C10.85424274 32.32557463 7.9429383 33.01902057 5 34 C5.16048828 35.24716797 5.16048828 35.24716797 5.32421875 36.51953125 C5.44410156 37.60621094 5.56398437 38.69289062 5.6875 39.8125 C5.87892578 41.43091797 5.87892578 41.43091797 6.07421875 43.08203125 C6 46 6 46 4.515625 47.67578125 C4.01546875 48.11277344 3.5153125 48.54976562 3 49 C3.0309375 50.670625 3.0309375 50.670625 3.0625 52.375 C3 56 3 56 1.0625 58.25 C-1.26934337 61.35912449 -1.29723335 62.53272177 -1.5 66.3125 C-1.8276433 71.59040625 -2.6420316 75.79738924 -6 80 C-12.46813039 84.31208693 -20.33160801 83.76285176 -27.796875 82.54296875 C-29.59795878 82.18119036 -31.39874162 81.81791053 -33.19921875 81.453125 C-39.83526323 80.37951111 -47.92708396 79.71734268 -54 83 C-54.96877057 85.03243548 -54.96877057 85.03243548 -55 87 C-55.66 87 -56.32 87 -57 87 C-57.495 88.485 -57.495 88.485 -58 90 C-59.70884005 88.37660195 -61.37446717 86.70680947 -63 85 C-63 84.34 -63 83.68 -63 83 C-63.99 83 -64.98 83 -66 83 C-64.81357961 79.44073884 -63.75730652 78.7963255 -60.8125 76.5625 C-55.65202359 72.56368927 -50.71961507 68.352237 -45.82348633 64.03735352 C-42.96732269 61.55213074 -40.41452676 59.66718678 -37 58 C-35.71745356 55.46229997 -35.71745356 55.46229997 -35 53 C-39.04095101 55.57845566 -42.50864227 58.25116541 -46 61.5625 C-52.37482996 67.4331544 -59.122619 72.73676231 -66 78 C-67.22879883 78.94166016 -67.22879883 78.94166016 -68.48242188 79.90234375 C-84.46030666 92.13522836 -84.46030666 92.13522836 -90.5546875 96.63671875 C-96.86146216 101.29570215 -102.87683469 106.19438144 -108.82421875 111.296875 C-111.79417764 113.84074475 -114.8278593 116.29894838 -117.875 118.75 C-121.5903726 121.77176469 -125.02295258 124.90170384 -128.34765625 128.34375 C-130.03757536 130.03766419 -131.80059906 131.5774832 -133.625 133.125 C-137.54234965 136.50255737 -141.21339219 140.10047338 -144.875 143.75 C-145.73279053 144.60102295 -145.73279053 144.60102295 -146.60791016 145.46923828 C-149.01231761 147.88226625 -151.10475767 150.15713651 -153 153 C-153.99 152.67 -154.98 152.34 -156 152 C-156.95933556 127.24381295 -150.18722085 108.65936704 -133.33349609 90.43896484 C-132.89344238 89.96410645 -132.45338867 89.48924805 -132 89 C-130.84951172 87.71029297 -130.84951172 87.71029297 -129.67578125 86.39453125 C-120.18768687 76.26208411 -108.18182661 68.99719193 -96.5625 61.5625 C-78.9926305 50.31185036 -62.63378275 37.90759574 -48 23 C-47.34 23.33 -46.68 23.66 -46 24 C-47.61594832 26.04119788 -49.2856382 28.04072937 -51 30 C-51.66 30 -52.32 30 -53 30 C-53.66 31.32 -54.32 32.64 -55 34 C-55.66 34 -56.32 34 -57 34 C-57.33 34.99 -57.66 35.98 -58 37 C-60.19921875 38.9140625 -60.19921875 38.9140625 -63 41 C-64.40185547 42.06347656 -64.40185547 42.06347656 -65.83203125 43.1484375 C-67.8809746 44.67910292 -69.93048546 46.20900888 -71.98046875 47.73828125 C-73.8251069 49.11997011 -75.66288725 50.51095391 -77.48828125 51.91796875 C-78.19339844 52.46066406 -78.89851563 53.00335938 -79.625 53.5625 C-80.23601562 54.03816406 -80.84703125 54.51382813 -81.4765625 55.00390625 C-83 56 -83 56 -85 56 C-85 56.66 -85 57.32 -85 58 C-85.5264209 58.28045166 -86.0528418 58.56090332 -86.59521484 58.84985352 C-92.82645649 62.23297371 -98.73486542 65.9951837 -104.625 69.9375 C-105.52734375 70.53240234 -106.4296875 71.12730469 -107.359375 71.74023438 C-115.73530209 77.32622074 -123.35197742 83.42542088 -129.6875 91.3125 C-130.450625 92.199375 -131.21375 93.08625 -132 94 C-132.66 94 -133.32 94 -134 94 C-134 94.66 -134 95.32 -134 96 C-135 97 -136 98 -137 99 C-137.87654694 100.47516436 -138.70834714 101.97759066 -139.5 103.5 C-141.06540544 106.51039508 -142.58333869 108.64118431 -145 111 C-148.27142719 116.62276549 -149.93589934 122.03316975 -151.38671875 128.36328125 C-152 131 -152 131 -153 134 C-153.06970052 136.39490986 -153.08448003 138.79167691 -153.0625 141.1875 C-153.05347656 142.45980469 -153.04445313 143.73210937 -153.03515625 145.04296875 C-153.02355469 146.01878906 -153.01195312 146.99460937 -153 148 C-149.10538942 144.26073002 -146.26107768 139.89900163 -144 135 C-142.35 135 -140.7 135 -139 135 C-139 132.36 -139 129.72 -139 127 C-137.88625 126.896875 -136.7725 126.79375 -135.625 126.6875 C-134.42875 126.460625 -133.2325 126.23375 -132 126 C-131.34 125.01 -130.68 124.02 -130 123 C-130.33 122.01 -130.66 121.02 -131 120 C-130.29875 119.87625 -129.5975 119.7525 -128.875 119.625 C-125.80364682 118.95731453 -122.9325642 118.13303617 -120 117 C-119.67 116.34 -119.34 115.68 -119 115 C-116.64243097 113.47076604 -114.31855692 112.14158085 -111.75 111 C-109.64862526 110.05720054 -109.64862526 110.05720054 -109 107 C-107.3984375 105.60546875 -107.3984375 105.60546875 -105.375 104.1875 C-98.25398465 99.45919214 -98.25398465 99.45919214 -93 93 C-90.4375 92.375 -90.4375 92.375 -88 92 C-88 91.34 -88 90.68 -88 90 C-87.13375 89.5978125 -87.13375 89.5978125 -86.25 89.1875 C-83.97411943 88.06896045 -83.97411943 88.06896045 -82.0625 86.5 C-79.80767423 84.86012671 -77.61321478 83.94366089 -75 83 C-75 82.34 -75 81.68 -75 81 C-72.34718276 78.92805826 -69.5749592 77.06779617 -66.796875 75.16796875 C-64.01067414 73.00827395 -62.15586167 70.76452089 -60 68 C-58 67 -56 66 -54 65 C-50.43321409 62.18375399 -47.10178382 59.13517121 -43.9375 55.875 C-41.19244499 53.21849515 -38.13990491 51.17378032 -35 49 C-33.68 50.32 -32.36 51.64 -31 53 C-32.49041773 56.79379058 -34.69062512 58.68343758 -38 61 C-38.66 61 -39.32 61 -40 61 C-40 61.66 -40 62.32 -40 63 C-41.54888502 64.41706502 -43.16761534 65.75809496 -44.8125 67.0625 C-46.30136719 68.25359375 -46.30136719 68.25359375 -47.8203125 69.46875 C-48.34141602 69.88253906 -48.86251953 70.29632813 -49.39941406 70.72265625 C-52.01609525 72.81089236 -54.59974867 74.93852748 -57.1875 77.0625 C-58.79166667 78.375 -60.39583333 79.6875 -62 81 C-60.27773504 84.24849977 -60.27773504 84.24849977 -57 85 C-56.67 84.34 -56.34 83.68 -56 83 C-56.66 82.67 -57.32 82.34 -58 82 C-56.68 82 -55.36 82 -54 82 C-53.34 80.35 -52.68 78.7 -52 77 C-51.67 77.66 -51.34 78.32 -51 79 C-50.34 78.67 -49.68 78.34 -49 78 C-41.61664384 77.57327377 -34.70046021 77.88520721 -27.5078125 79.546875 C-21.13011276 80.69923196 -12.74876247 81.3282309 -7 78 C-4.44667004 73.37968865 -4.60726533 67.98276368 -4.34375 62.8046875 C-4.00837145 60.06830344 -3.39440203 58.35024213 -2 56 C-1.34 56 -0.68 56 0 56 C-0.061875 54.9275 -0.12375 53.855 -0.1875 52.75 C0.01538828 48.69223438 0.59247659 48.00940426 3 45 C3.27122178 42.15217131 3.2818632 40.5637264 2 38 C3.13636146 33.97108209 4.4717298 32.18333552 8 30 C11.63166367 28.87107141 15.28902707 27.97490577 18.98046875 27.0625 C19.97691406 26.711875 20.97335938 26.36125 22 26 C22.33 25.01 22.66 24.02 23 23 C21.8553125 22.5978125 21.8553125 22.5978125 20.6875 22.1875 C18.07686496 21.03396359 16.92614911 20.01370135 15 18 C14.01 17.67 13.02 17.34 12 17 C10.53515625 15.51171875 10.53515625 15.51171875 9.0625 13.6875 C7.31046323 11.55534553 5.60830878 9.61861645 3.625 7.6875 C2 6 2 6 2 4 C1.34 4 0.68 4 0 4 C0 2.68 0 1.36 0 0 Z " fill="#1B4E7A" transform="translate(235,153)"/>
<path d="M0 0 C2.67040071 1.27663894 5.06539853 2.69854197 7.5 4.375 C10.8927023 6.54607628 14.14813619 7.77513201 18 8.9375 C26.06440889 11.47290128 31.96184016 15.38962184 36 23 C38.65612077 29.50749589 38.18794015 36.05665559 38 43 C34.43217129 42.44397475 33.07770886 41.31393174 30.875 38.5 C28.80112319 35.8119616 28.80112319 35.8119616 26 34 C26.77537109 35.01320313 26.77537109 35.01320313 27.56640625 36.046875 C28.22511719 36.93890625 28.88382813 37.8309375 29.5625 38.75 C30.22378906 39.63171875 30.88507812 40.5134375 31.56640625 41.421875 C33 44 33 44 32.71484375 46.328125 C32.47894531 46.87984375 32.24304687 47.4315625 32 48 C19.29996685 44.1365595 19.29996685 44.1365595 14 40 C13.175 39.46375 12.35 38.9275 11.5 38.375 C3.26448796 30.55126356 -0.62183981 19.01007755 -1.08984375 7.859375 C-1.17889808 2.35779617 -1.17889808 2.35779617 0 0 Z " fill="#34A65A" transform="translate(31,93)"/>
<path d="M0 0 C0.66 0 1.32 0 2 0 C3.26171875 1.6875 3.26171875 1.6875 4.6875 4 C7.35187852 8.16432494 10.31058627 11.76134243 13.6796875 15.37109375 C15 17 15 17 15 19 C15.57234375 19.25523438 16.1446875 19.51046875 16.734375 19.7734375 C19.24173733 21.13087159 21.1330456 22.71974104 23.25 24.625 C23.95640625 25.25664063 24.6628125 25.88828125 25.390625 26.5390625 C25.92171875 27.02117187 26.4528125 27.50328125 27 28 C25.53546319 31.55898193 23.6456231 33.40174151 20.625 35.75 C19.46871094 36.67039062 19.46871094 36.67039062 18.2890625 37.609375 C16 39 16 39 12 39 C12 38.34 12 37.68 12 37 C10.35 36.67 8.7 36.34 7 36 C7 35.34 7 34.68 7 34 C6.1028125 33.566875 6.1028125 33.566875 5.1875 33.125 C3 32 3 32 0 30 C0 29.34 0 28.68 0 28 C-0.66 28 -1.32 28 -2 28 C-7.43438076 22.57843617 -9.92426829 17.530122 -11 10 C-9.8803014 8.99406757 -8.7540588 7.9954151 -7.625 7 C-6.99851562 6.443125 -6.37203125 5.88625 -5.7265625 5.3125 C-4 4 -4 4 -2 4 C-1.34 2.68 -0.68 1.36 0 0 Z " fill="#49C1C2" transform="translate(127,81)"/>
<path d="M0 0 C2.70376322 2.62424078 5.17968164 5.22030501 7.5 8.1875 C10.93004611 12.32346589 15.20358982 15.31599827 19.59375 18.36010742 C22.34233952 20.34506637 23.84788391 21.51885749 24.88671875 24.8046875 C24.94279297 25.89136719 24.94279297 25.89136719 25 27 C21.3538279 29.40835722 18.12682461 30.65528562 13.875 31.625 C10.85424274 32.32557463 7.9429383 33.01902057 5 34 C5.16048828 35.24716797 5.16048828 35.24716797 5.32421875 36.51953125 C5.44410156 37.60621094 5.56398438 38.69289062 5.6875 39.8125 C5.81511719 40.89144531 5.94273437 41.97039062 6.07421875 43.08203125 C6 46 6 46 4.515625 47.67578125 C4.01546875 48.11277344 3.5153125 48.54976562 3 49 C3.020625 50.11375 3.04125 51.2275 3.0625 52.375 C3 56 3 56 1.0625 58.25 C-1.26934337 61.35912449 -1.29723335 62.53272177 -1.5 66.3125 C-1.8276433 71.59040625 -2.6420316 75.79738924 -6 80 C-12.46813039 84.31208693 -20.33160801 83.76285176 -27.796875 82.54296875 C-29.59795878 82.18119036 -31.39874162 81.81791053 -33.19921875 81.453125 C-39.83526323 80.37951111 -47.92708396 79.71734268 -54 83 C-54.96877057 85.03243548 -54.96877057 85.03243548 -55 87 C-55.66 87 -56.32 87 -57 87 C-57.495 88.485 -57.495 88.485 -58 90 C-59.70884005 88.37660195 -61.37446717 86.70680947 -63 85 C-63 84.34 -63 83.68 -63 83 C-63.99 83 -64.98 83 -66 83 C-64.81357961 79.44073884 -63.75730652 78.7963255 -60.8125 76.5625 C-55.65202359 72.56368927 -50.71961507 68.352237 -45.82348633 64.03735352 C-42.96732269 61.55213074 -40.41452676 59.66718678 -37 58 C-35.71745356 55.46229997 -35.71745356 55.46229997 -35 53 C-39.04095101 55.57845566 -42.50864227 58.25116541 -46 61.5625 C-52.37550057 67.43377197 -59.12698533 72.73022088 -66 78 C-66.83515137 78.64372559 -67.67030273 79.28745117 -68.53076172 79.95068359 C-71.28819942 82.07541305 -74.04961769 84.19485623 -76.8125 86.3125 C-77.68374512 86.9823291 -78.55499023 87.6521582 -79.45263672 88.34228516 C-84.83454556 92.44858844 -90.31646102 96.32211188 -96 100 C-95.38722388 97.03824877 -94.74627478 95.61941217 -93 93 C-90.375 92.3125 -90.375 92.3125 -88 92 C-88 91.34 -88 90.68 -88 90 C-87.4225 89.731875 -86.845 89.46375 -86.25 89.1875 C-83.97411943 88.06896045 -83.97411943 88.06896045 -82.0625 86.5 C-79.80767423 84.86012671 -77.61321478 83.94366089 -75 83 C-75 82.34 -75 81.68 -75 81 C-72.34718276 78.92805826 -69.5749592 77.06779617 -66.796875 75.16796875 C-64.01067414 73.00827395 -62.15586167 70.76452089 -60 68 C-58 67 -56 66 -54 65 C-50.43321409 62.18375399 -47.10178382 59.13517121 -43.9375 55.875 C-41.19244499 53.21849515 -38.13990491 51.17378032 -35 49 C-33.68 50.32 -32.36 51.64 -31 53 C-32.49041773 56.79379058 -34.69062512 58.68343758 -38 61 C-38.66 61 -39.32 61 -40 61 C-40 61.66 -40 62.32 -40 63 C-41.54888502 64.41706502 -43.16761534 65.75809496 -44.8125 67.0625 C-45.80507812 67.8565625 -46.79765625 68.650625 -47.8203125 69.46875 C-48.34141602 69.88253906 -48.86251953 70.29632813 -49.39941406 70.72265625 C-52.01609525 72.81089236 -54.59974867 74.93852748 -57.1875 77.0625 C-58.79166667 78.375 -60.39583333 79.6875 -62 81 C-60.27773504 84.24849977 -60.27773504 84.24849977 -57 85 C-56.67 84.34 -56.34 83.68 -56 83 C-56.99 82.505 -56.99 82.505 -58 82 C-56.68 82 -55.36 82 -54 82 C-53.34 80.35 -52.68 78.7 -52 77 C-51.67 77.66 -51.34 78.32 -51 79 C-50.34 78.67 -49.68 78.34 -49 78 C-41.61664384 77.57327377 -34.70046021 77.88520721 -27.5078125 79.546875 C-21.13011276 80.69923196 -12.74876247 81.3282309 -7 78 C-4.44667004 73.37968865 -4.60726533 67.98276368 -4.34375 62.8046875 C-4.00837145 60.06830344 -3.39440203 58.35024213 -2 56 C-1.34 56 -0.68 56 0 56 C-0.061875 54.9275 -0.12375 53.855 -0.1875 52.75 C0.01538828 48.69223438 0.59247659 48.00940426 3 45 C3.27122178 42.15217131 3.2818632 40.5637264 2 38 C3.13636146 33.97108209 4.4717298 32.18333552 8 30 C11.63166367 28.87107141 15.28902707 27.97490577 18.98046875 27.0625 C19.97691406 26.711875 20.97335938 26.36125 22 26 C22.495 24.515 22.495 24.515 23 23 C21.8553125 22.5978125 21.8553125 22.5978125 20.6875 22.1875 C18.07686496 21.03396359 16.92614911 20.01370135 15 18 C13.515 17.505 13.515 17.505 12 17 C10.53515625 15.51171875 10.53515625 15.51171875 9.0625 13.6875 C7.31046323 11.55534553 5.60830878 9.61861645 3.625 7.6875 C2 6 2 6 2 4 C1.34 4 0.68 4 0 4 C0 2.68 0 1.36 0 0 Z " fill="#214F78" transform="translate(235,153)"/>
<path d="M0 0 C2.67040071 1.27663894 5.06539853 2.69854197 7.5 4.375 C10.8927023 6.54607628 14.14813619 7.77513201 18 8.9375 C26.06440889 11.47290128 31.96184016 15.38962184 36 23 C38.49724516 29.2431129 38.19544412 35.38747378 38 42 C36.91160226 41.11032656 35.82955392 40.21288426 34.75 39.3125 C34.14671875 38.81363281 33.5434375 38.31476563 32.921875 37.80078125 C31 36 31 36 29.15625 33.59765625 C26.67420699 30.60751385 23.85853774 28.40889734 20.75 26.125 C19.5884905 25.24918765 18.42833199 24.37158073 17.26953125 23.4921875 C16.42962646 22.85555176 16.42962646 22.85555176 15.57275391 22.20605469 C2.22638291 11.97148891 2.22638291 11.97148891 1 4 C0.01 4.495 0.01 4.495 -1 5 C-0.67 3.35 -0.34 1.7 0 0 Z " fill="#8FC64D" transform="translate(31,93)"/>
<path d="M0 0 C2.83150018 1.36408038 5.04424479 2.94424207 7.48828125 4.9140625 C8.67357422 5.86152344 8.67357422 5.86152344 9.8828125 6.828125 C10.47449219 7.31023437 11.06617188 7.79234375 11.67578125 8.2890625 C11.30887188 16.91143267 6.06198433 22.86705113 0.67578125 29.2890625 C-4.21589078 28.86977633 -6.09045907 26.84619815 -9.32421875 23.2890625 C-10.27296875 22.4434375 -11.22171875 21.5978125 -12.19921875 20.7265625 C-12.90046875 19.9221875 -13.60171875 19.1178125 -14.32421875 18.2890625 C-14.00650186 14.99274973 -12.69430189 13.31658697 -10.44921875 10.9765625 C-8.26289831 8.55487263 -6.78253622 6.44731305 -5.57421875 3.4140625 C-3.74979527 -1.1469962 -3.74979527 -1.1469962 0 0 Z " fill="#2FA85C" transform="translate(155.32421875,79.7109375)"/>
<path d="M0 0 C0 0.66 0 1.32 0 2 C0.8971875 2.433125 0.8971875 2.433125 1.8125 2.875 C4 4 4 4 7 6 C7 6.66 7 7.32 7 8 C9.475 8.495 9.475 8.495 12 9 C12 9.66 12 10.32 12 11 C12.66 11.33 13.32 11.66 14 12 C4.73699041 23.29100577 4.73699041 23.29100577 -0.9765625 24.375 C-4.45771967 24.58360867 -6.84366901 24.07982859 -9.9375 22.5 C-12.33713087 19.59135653 -12.96147804 17.72946641 -13.1953125 14.015625 C-12.64950271 8.38286798 -5.71780207 0 0 0 Z " fill="#30A75B" transform="translate(127,109)"/>
<path d="M0 0 C-3.01031744 0.93423645 -3.86650268 1.04449911 -7 0 C-14.222126 -0.49807765 -20.00275605 0.95013131 -26.4375 4.25 C-28.79517528 6.89059631 -29.24633712 9.57953001 -30 13 C-30.28875 14.051875 -30.5775 15.10375 -30.875 16.1875 C-31.31928359 19.14676134 -31.31928359 19.14676134 -29.0625 21.375 C-28.381875 21.91125 -27.70125 22.4475 -27 23 C-24.53770003 22.28254644 -24.53770003 22.28254644 -22 21 C-21.57074219 20.02740234 -21.57074219 20.02740234 -21.1328125 19.03515625 C-20 17 -20 17 -17.828125 15.91796875 C-12.8743245 14.51439194 -9.10653024 13.52179388 -4 15 C-3.505 16.98 -3.505 16.98 -3 19 C-4.2684375 18.4740625 -4.2684375 18.4740625 -5.5625 17.9375 C-9.60403761 16.83526247 -11.96284536 16.89895783 -16 18 C-19.05980771 20.4769872 -21.15091116 23.19870741 -23.3125 26.4375 C-26.14547359 30.57799986 -29.88510689 33.21249176 -34 36 C-33.67 38.31 -33.34 40.62 -33 43 C-37.43891897 39.40658941 -39.00315528 34.0714139 -39.8125 28.625 C-40.42711694 20.74186973 -38.43229395 14.49060278 -33.8359375 8.078125 C-25.33524125 -1.54393969 -11.9204002 -5.01911587 0 0 Z " fill="#97BF5A" transform="translate(151,55)"/>
<path d="M0 0 C2.92090003 1.30936898 4.75619462 2.75619462 7 5 C7.99 5.33 8.98 5.66 10 6 C9.875 7.8125 9.875 7.8125 9 10 C3.96428571 13 3.96428571 13 1 13 C1 13.66 1 14.32 1 15 C0.31292969 15.33773437 -0.37414062 15.67546875 -1.08203125 16.0234375 C-1.98308594 16.46945313 -2.88414063 16.91546875 -3.8125 17.375 C-5.15248047 18.03628906 -5.15248047 18.03628906 -6.51953125 18.7109375 C-9.14556381 20.01866905 -9.14556381 20.01866905 -12 22 C-16 22 -16 22 -18.625 19.75 C-20.57665881 17.49018453 -21.8867446 15.73253598 -23 13 C-21.35 13 -19.7 13 -18 13 C-17.67 11.68 -17.34 10.36 -17 9 C-16.236875 8.896875 -15.47375 8.79375 -14.6875 8.6875 C-11.78132022 7.94405866 -10.80086951 7.34113037 -9 5 C-8.67 4.01 -8.34 3.02 -8 2 C-6 3 -6 3 -5 5 C-3.35 3.35 -1.7 1.7 0 0 Z " fill="#31C1DC" transform="translate(123,168)"/>
<path d="M0 0 C6.94414187 2.65511307 10.6687241 7.3215478 14.171875 13.7265625 C16.55679122 19.19387044 16.82892879 24.92509558 16.125 30.8125 C15.10546875 33.140625 15.10546875 33.140625 14.125 34.8125 C14.125 33.8225 14.125 32.8325 14.125 31.8125 C13.5475 31.54695313 12.97 31.28140625 12.375 31.0078125 C9.31720045 29.38335649 6.7998592 27.23845927 4.125 25.0546875 C1.95106978 23.46075957 1.95106978 23.46075957 -1.875 23.8125 C-2.535 21.8325 -3.195 19.8525 -3.875 17.8125 C-1.565 18.4725 0.745 19.1325 3.125 19.8125 C3.125 19.1525 3.125 18.4925 3.125 17.8125 C3.785 17.8125 4.445 17.8125 5.125 17.8125 C5.455 17.1525 5.785 16.4925 6.125 15.8125 C7.44366272 14.134202 8.77580468 12.46635233 10.125 10.8125 C9.465 10.8125 8.805 10.8125 8.125 10.8125 C8.125 10.1525 8.125 9.4925 8.125 8.8125 C7.465 8.8125 6.805 8.8125 6.125 8.8125 C5.795 8.1525 5.465 7.4925 5.125 6.8125 C4.135 7.3075 4.135 7.3075 3.125 7.8125 C2.135 7.4825 1.145 7.1525 0.125 6.8125 C-0.205 7.8025 -0.535 8.7925 -0.875 9.8125 C-3.8125 9.4375 -3.8125 9.4375 -6.875 8.8125 C-7.205 8.1525 -7.535 7.4925 -7.875 6.8125 C-7.215 6.8125 -6.555 6.8125 -5.875 6.8125 C-5.771875 6.02875 -5.66875 5.245 -5.5625 4.4375 C-4.73214531 1.26705482 -3.51018042 -0.35101804 0 0 Z " fill="#92C34A" transform="translate(152.875,56.1875)"/>
<path d="M0 0 C2.94956528 1.36944102 5.52468811 2.87830409 8 5 C8 5.66 8 6.32 8 7 C8.639375 7.226875 9.27875 7.45375 9.9375 7.6875 C12 9 12 9 12.75 11.625 C12.87375 12.800625 12.87375 12.800625 13 14 C13.99 14.33 14.98 14.66 16 15 C20.06231703 21.09347554 23.72639701 28.49389754 23 36 C22.01 36.495 22.01 36.495 21 37 C20.34 36.67 19.68 36.34 19 36 C19 35.01 19 34.02 19 33 C19.66 33 20.32 33 21 33 C20.34 32.01 19.68 31.02 19 30 C17.68 30 16.36 30 15 30 C15.020625 28.9275 15.04125 27.855 15.0625 26.75 C15.0142016 23.85209576 14.86844115 21.71387859 14 19 C13.01 19.33 12.02 19.66 11 20 C10.34 20 9.68 20 9 20 C6.47224649 23.79163027 6.77556965 26.80874031 6.875 31.1875 C6.88853516 32.31188477 6.88853516 32.31188477 6.90234375 33.45898438 C6.92587422 35.30612654 6.96174439 37.15310412 7 39 C6.01 39.495 6.01 39.495 5 40 C4.97113016 36.02084841 4.95324594 32.04172347 4.9375 28.0625 C4.92912109 26.92619141 4.92074219 25.78988281 4.91210938 24.61914062 C4.90888672 23.53955078 4.90566406 22.45996094 4.90234375 21.34765625 C4.89710693 20.34742432 4.89187012 19.34719238 4.88647461 18.31665039 C5 16 5 16 6 15 C5.34 14.67 4.68 14.34 4 14 C4 13.01 4 12.02 4 11 C3.34 10.67 2.68 10.34 2 10 C1.60235737 8.01178687 1.27571139 6.00875442 1 4 C0.68325425 2.66262906 0.35729936 1.32711192 0 0 Z " fill="#247BB8" transform="translate(209,92)"/>
<path d="M0 0 C-1.58356156 4.35738182 -4.97952704 6.8225843 -8.4375 9.6875 C-9.37541382 10.47870239 -9.37541382 10.47870239 -10.33227539 11.28588867 C-14.16373324 14.50763013 -18.04449826 17.66565693 -21.9375 20.8125 C-25.6342639 23.8120672 -29.04266077 26.92210762 -32.34765625 30.34375 C-34.03757536 32.03766419 -35.80059906 33.5774832 -37.625 35.125 C-41.54234965 38.50255737 -45.21339219 42.10047338 -48.875 45.75 C-49.44686035 46.31734863 -50.0187207 46.88469727 -50.60791016 47.46923828 C-53.01231761 49.88226625 -55.10475767 52.15713651 -57 55 C-57.99 54.67 -58.98 54.34 -60 54 C-59.67 48.39 -59.34 42.78 -59 37 C-58.67 37 -58.34 37 -58 37 C-57.67 41.29 -57.34 45.58 -57 50 C-53.14513185 46.14513185 -50.28501405 41.95086378 -48 37 C-46.35 37 -44.7 37 -43 37 C-43 34.36 -43 31.72 -43 29 C-41.88625 28.896875 -40.7725 28.79375 -39.625 28.6875 C-38.42875 28.460625 -37.2325 28.23375 -36 28 C-35.34 27.01 -34.68 26.02 -34 25 C-34.33 24.01 -34.66 23.02 -35 22 C-34.29875 21.87625 -33.5975 21.7525 -32.875 21.625 C-29.80364682 20.95731453 -26.9325642 20.13303617 -24 19 C-23.67 18.34 -23.34 17.68 -23 17 C-20.64243097 15.47076604 -18.31855692 14.14158085 -15.75 13 C-13.64862526 12.05720054 -13.64862526 12.05720054 -13 9 C-11.2578125 7.5 -11.2578125 7.5 -9.125 6 C-7.03776082 4.521218 -5.14759476 3.15253813 -3.3671875 1.3125 C-2 0 -2 0 0 0 Z " fill="#10487B" transform="translate(139,251)"/>
<path d="M0 0 C0.66 0 1.32 0 2 0 C1.59077284 2.93279462 1.17741584 5.57405832 0.03515625 8.31640625 C-6.36446099 24.90711207 -2.32017435 42.84176777 3 59 C3.35151815 60.32865491 3.69675157 61.65950409 4 63 C2.04595302 61.23205273 0.79878054 59.66195132 -0.5625 57.375 C-1.77912906 54.88809625 -1.77912906 54.88809625 -4 54 C-4 51.69 -4 49.38 -4 47 C-4.66 47 -5.32 47 -6 47 C-6 36.44 -6 25.88 -6 15 C-6.99 15.99 -7.98 16.98 -9 18 C-9.66 18 -10.32 18 -11 18 C-10.855625 19.19625 -10.71125 20.3925 -10.5625 21.625 C-10.52666412 24.50210951 -10.69126961 25.63014254 -12.55859375 27.8671875 C-14.31907696 29.34783535 -16.09254517 30.71538756 -18 32 C-16.31106583 20.58366014 -8.02140157 8.02140157 0 0 Z " fill="#3CA9BD" transform="translate(94,70)"/>
<path d="M0 0 C0.85464844 0.67482422 0.85464844 0.67482422 1.7265625 1.36328125 C1.3965625 2.02328125 1.0665625 2.68328125 0.7265625 3.36328125 C-0.5934375 3.36328125 -1.9134375 3.36328125 -3.2734375 3.36328125 C-3.7684375 1.87828125 -3.7684375 1.87828125 -4.2734375 0.36328125 C-9.87390004 -2.28956943 -14.10929561 -3.14197628 -20.2734375 -2.63671875 C-21.95921461 -2.01997103 -23.62791788 -1.35399653 -25.2734375 -0.63671875 C-27.59941261 -0.25541135 -29.93255908 0.08788379 -32.2734375 0.36328125 C-32.2734375 -0.29671875 -32.2734375 -0.95671875 -32.2734375 -1.63671875 C-32.6446875 -1.16234375 -33.0159375 -0.68796875 -33.3984375 -0.19921875 C-35.89990712 1.88533927 -38.08937168 2.00949616 -41.2734375 2.36328125 C-41.2734375 2.03328125 -41.2734375 1.70328125 -41.2734375 1.36328125 C-48.2034375 0.86828125 -48.2034375 0.86828125 -55.2734375 0.36328125 C-55.6034375 1.35328125 -55.9334375 2.34328125 -56.2734375 3.36328125 C-56.9334375 3.03328125 -57.5934375 2.70328125 -58.2734375 2.36328125 C-58.2734375 1.70328125 -58.2734375 1.04328125 -58.2734375 0.36328125 C-58.9334375 0.36328125 -59.5934375 0.36328125 -60.2734375 0.36328125 C-60.6034375 -0.29671875 -60.9334375 -0.95671875 -61.2734375 -1.63671875 C-62.2634375 -1.14171875 -62.2634375 -1.14171875 -63.2734375 -0.63671875 C-63.6034375 -1.95671875 -63.9334375 -3.27671875 -64.2734375 -4.63671875 C-58.5234375 -4.76171875 -58.5234375 -4.76171875 -56.2734375 -3.63671875 C-53.46957145 -3.50980692 -50.70272665 -3.44694531 -47.8984375 -3.44921875 C-47.0827832 -3.44857422 -46.26712891 -3.44792969 -45.42675781 -3.44726562 C-39.86464059 -3.49557458 -34.66884103 -4.1310876 -29.203125 -5.17578125 C-18.68812963 -6.83014052 -8.83153649 -6.3580993 0 0 Z " fill="#92B655" transform="translate(76.2734375,156.63671875)"/>
<path d="M0 0 C7.55518915 2.35325564 13.19282131 5.57369324 18 12 C18.71484375 14.25 18.71484375 14.25 19 16 C18.01 15.67 17.02 15.34 16 15 C16 15.66 16 16.32 16 17 C14.35 16.67 12.7 16.34 11 16 C10.67 16.99 10.34 17.98 10 19 C8.72390677 18.09066991 7.45434447 17.17217147 6.1875 16.25 C5.47980469 15.73953125 4.77210937 15.2290625 4.04296875 14.703125 C0.89020422 12.07481652 -0.75639035 9.918221 -1.8125 5.9375 C-2 3 -2 3 0 0 Z " fill="#31A75B" transform="translate(38,116)"/>
<path d="M0 0 C6.06527711 0.79409949 9.40624803 6.52602162 13 11 C21.85751664 23.05798652 25.19969044 34.57953892 25.0625 49.375 C25.05798828 50.30183594 25.05347656 51.22867188 25.04882812 52.18359375 C25.03711574 54.45579709 25.02071372 56.72786388 25 59 C24.67 59 24.34 59 24 59 C23.97083496 58.31075439 23.94166992 57.62150879 23.91162109 56.91137695 C23.14099851 38.10861511 23.14099851 38.10861511 16 21 C15.65839844 20.32582031 15.31679687 19.65164062 14.96484375 18.95703125 C12.44002513 14.00576357 8.74315223 10.04807194 5 6 C5.48990907 10.70374565 5.48990907 10.70374565 7.03125 15.125 C8.45416112 19.34783301 8.2107226 23.39119229 8.125 27.8125 C8.11597656 28.69615234 8.10695312 29.57980469 8.09765625 30.49023438 C8.07419637 32.66027359 8.03832865 34.83017247 8 37 C7.01 37.495 7.01 37.495 6 38 C5.96132812 36.20369141 5.96132812 36.20369141 5.921875 34.37109375 C5.58542666 23.64126925 4.19924891 14.25092671 1 4 C0.65501068 2.66963492 0.31551717 1.33766132 0 0 Z " fill="#409DAE" transform="translate(184,70)"/>
<path d="M0 0 C0.556875 0.28875 1.11375 0.5775 1.6875 0.875 C3.98635455 2.05918647 3.98635455 2.05918647 6.5 2.8125 C9.66963256 4.31807547 10.91568877 6.19920678 13 9 C13.86625 9.86625 14.7325 10.7325 15.625 11.625 C18 14 18 14 20 17 C16.43217129 16.44397475 15.07770886 15.31393174 12.875 12.5 C10.80112319 9.8119616 10.80112319 9.8119616 8 8 C8.77537109 9.01320312 8.77537109 9.01320312 9.56640625 10.046875 C10.22511719 10.93890625 10.88382813 11.8309375 11.5625 12.75 C12.22378906 13.63171875 12.88507812 14.5134375 13.56640625 15.421875 C15 18 15 18 14.71484375 20.328125 C14.47894531 20.87984375 14.24304687 21.4315625 14 22 C12.05900185 21.40716801 10.12228755 20.80029748 8.1875 20.1875 C6.56908203 19.68283203 6.56908203 19.68283203 4.91796875 19.16796875 C2.18086707 18.07239525 0.83507509 17.24716212 -1 15 C-0.67 14.01 -0.34 13.02 0 12 C2.475 12.99 2.475 12.99 5 14 C5 13.34 5 12.68 5 12 C5.66 11.67 6.32 11.34 7 11 C6.4946875 10.45730469 5.989375 9.91460937 5.46875 9.35546875 C4.49421875 8.28232422 4.49421875 8.28232422 3.5 7.1875 C2.8503125 6.47980469 2.200625 5.77210937 1.53125 5.04296875 C0 3 0 3 0 0 Z " fill="#349657" transform="translate(49,119)"/>
<path d="M0 0 C4.34619495 1.5014128 6.18432103 4.77112276 8.5 8.5 C9.09155884 9.43416748 9.09155884 9.43416748 9.69506836 10.38720703 C12.77138394 15.36219113 15.16635186 20.434942 17 26 C13.25582421 26 12.36225593 25.92400327 9.328125 24.25 C8.66425781 23.8890625 8.00039062 23.528125 7.31640625 23.15625 C6.63449219 22.7746875 5.95257813 22.393125 5.25 22 C4.55261719 21.6184375 3.85523437 21.236875 3.13671875 20.84375 C1.42037385 19.90328704 -0.29037616 18.95262622 -2 18 C-1.67 17.34 -1.34 16.68 -1 16 C0.66666667 16 2.33333333 16 4 16 C5.16396662 10.39446065 5.16396662 10.39446065 3.6875 5.0625 C2.16126242 2.91019125 2.16126242 2.91019125 0 2 C0 1.34 0 0.68 0 0 Z " fill="#8FC649" transform="translate(78,161)"/>
<path d="M0 0 C2.97 0.495 2.97 0.495 6 1 C6 2.32 6 3.64 6 5 C5.01 5.495 5.01 5.495 4 6 C5.32 6.33 6.64 6.66 8 7 C8 6.34 8 5.68 8 5 C11 4 11 4 13.1875 4.9375 C14.0846875 5.4634375 14.0846875 5.4634375 15 6 C15.125 8.875 15.125 8.875 15 12 C14.34 12.66 13.68 13.32 13 14 C13.32041397 16.60280568 13.32041397 16.60280568 14 19 C13.34 19.33 12.68 19.66 12 20 C6.68792059 16.65535741 4.80897466 15.12268348 3 9 C1.01954441 8.33820153 1.01954441 8.33820153 -1 8 C-2.25 5.9375 -2.25 5.9375 -3 4 C-1.35 3.67 0.3 3.34 2 3 C1.34 2.67 0.68 2.34 0 2 C0 1.34 0 0.68 0 0 Z " fill="#8FC74B" transform="translate(46,104)"/>
<path d="M0 0 C0 7 0 7 -1 10 C-3.475 9.505 -3.475 9.505 -6 9 C-6.66 11.31 -7.32 13.62 -8 16 C-8.66 16 -9.32 16 -10 16 C-10.33 16.99 -10.66 17.98 -11 19 C-11.99 19 -12.98 19 -14 19 C-14.68707555 21.49064888 -15 23.37886292 -15 26 C-21.625 27.125 -21.625 27.125 -25 26 C-23.7260411 23.96166576 -22.38938077 21.96147874 -21 20 C-20.34 20 -19.68 20 -19 20 C-19 19.34 -19 18.68 -19 18 C-18.34 18 -17.68 18 -17 18 C-16.72929688 17.41605469 -16.45859375 16.83210938 -16.1796875 16.23046875 C-15.00590733 14.01116915 -13.73421674 12.23438838 -12.125 10.3125 C-11.63257812 9.71050781 -11.14015625 9.10851562 -10.6328125 8.48828125 C-9 7 -9 7 -6.8671875 6.48046875 C-6.25101563 6.32191406 -5.63484375 6.16335937 -5 6 C-4.67 5.01 -4.34 4.02 -4 3 C-1.9375 1.3125 -1.9375 1.3125 0 0 Z " fill="#105999" transform="translate(120,229)"/>
<path d="M0 0 C3.54209335 0.5956435 5.45829708 1.94491395 8.125 4.3125 C8.80820313 4.90675781 9.49140625 5.50101562 10.1953125 6.11328125 C12.83657005 8.87459597 13.95113507 10.9249715 14.125 14.75 C14.08375 15.4925 14.0425 16.235 14 17 C13.34 17 12.68 17 12 17 C11.71125 15.865625 11.4225 14.73125 11.125 13.5625 C10.75375 12.386875 10.3825 11.21125 10 10 C9.34 9.67 8.68 9.34 8 9 C6.875 6.9375 6.875 6.9375 6 5 C1.83500687 4.90660863 1.83500687 4.90660863 -2 6 C-3.77148372 8.47933197 -3.77148372 8.47933197 -5 11 C-4.34 11.33 -3.68 11.66 -3 12 C-3.875 16.875 -3.875 16.875 -5 18 C-3.02 18.99 -1.04 19.98 1 21 C1 21.66 1 22.32 1 23 C2.98 22.67 4.96 22.34 7 22 C7.33 22.66 7.66 23.32 8 24 C2.75137048 24.56235316 -0.02909993 24.40601025 -4.3125 21.1875 C-6.17511687 19.65735835 -7.88953426 18.11717758 -9.54296875 16.36328125 C-11.06935893 14.74507398 -11.06935893 14.74507398 -14 14 C-12.79418283 10.38254849 -11.86446408 10.04885713 -8.6875 8.125 C-5.04669894 5.80601843 -2.4508839 3.62304577 0 0 Z " fill="#8CC754" transform="translate(154,109)"/>
<path d="M0 0 C0.66 0 1.32 0 2 0 C2 0.99 2 1.98 2 3 C2.99 3.33 3.98 3.66 5 4 C4.67 4.33 4.34 4.66 4 5 C4.020625 6.299375 4.04125 7.59875 4.0625 8.9375 C4.14255473 27.6436214 0.27270242 45.65982763 -11 61 C-11.66 61 -12.32 61 -13 61 C-13.20625 61.66 -13.4125 62.32 -13.625 63 C-15.51152871 67.11606263 -18.20567979 70.4587703 -21 74 C-21.66 73.34 -22.32 72.68 -23 72 C-22.07380859 70.88818359 -22.07380859 70.88818359 -21.12890625 69.75390625 C-3.9459354 48.6048461 2.60944458 27.1195847 0 0 Z " fill="#256490" transform="translate(211,103)"/>
<path d="M0 0 C2.06798201 0.21030326 4.13531671 0.42862657 6.19921875 0.67578125 C8.09398577 0.89511969 9.99312878 1.07907503 11.89453125 1.23046875 C23.02048752 2.4200364 34.16143246 7.07190668 43 14 C45.14733927 14.70514846 45.14733927 14.70514846 47 15 C47.495 16.98 47.495 16.98 48 19 C43.69131101 17.41302104 39.75736811 15.27779091 35.75 13.0625 C26.39310617 7.84782127 26.39310617 7.84782127 16 6 C16 6.66 16 7.32 16 8 C9.82777121 6.75971762 3.93317878 5.10396411 -2 3 C1 2 1 2 2 2 C1.34 1.34 0.68 0.68 0 0 Z " fill="#428C47" transform="translate(49,173)"/>
<path d="M0 0 C0.66 0 1.32 0 2 0 C3.296875 1.7578125 3.296875 1.7578125 4.75 4.125 C7.45226205 8.3381327 10.33943606 11.60090491 14 15 C13.67 15.66 13.34 16.32 13 17 C12.44570312 16.566875 11.89140625 16.13375 11.3203125 15.6875 C10.59585938 15.130625 9.87140625 14.57375 9.125 14 C8.40570313 13.443125 7.68640625 12.88625 6.9453125 12.3125 C5.1147915 10.81356623 5.1147915 10.81356623 3 11 C2.67 9.68 2.34 8.36 2 7 C0.35 10.96 -1.3 14.92 -3 19 C-3.66 19 -4.32 19 -5 19 C-5 18.01 -5 17.02 -5 16 C-5.66 16 -6.32 16 -7 16 C-7.66 14.02 -8.32 12.04 -9 10 C-8.01 9.34 -7.02 8.68 -6 8 C-4.80767387 5.94996045 -4.80767387 5.94996045 -4 4 C-3.34 4 -2.68 4 -2 4 C-1.34 2.68 -0.68 1.36 0 0 Z " fill="#49BABB" transform="translate(127,81)"/>
<path d="M0 0 C4.22381394 0.50283499 6.76576244 3.08841604 9.75 5.875 C10.27787109 6.36605225 10.80574219 6.85710449 11.34960938 7.36303711 C20.26940679 15.88220416 26.95409265 25.66553935 29 38 C29.03824623 40.33301986 29.04574284 42.66711508 29 45 C28.34 44.67 27.68 44.34 27 44 C26.26942249 41.43558421 25.63588436 38.912303 25.0625 36.3125 C23.10003086 27.36488824 23.10003086 27.36488824 17.9375 19.9375 C16 18 16 18 15.16015625 15.64453125 C13.77193926 12.48014437 12.11986706 10.97858821 9.5 8.75 C8.7059375 8.06421875 7.911875 7.3784375 7.09375 6.671875 C5.10819046 4.96716253 5.10819046 4.96716253 3 4 C3.515625 5.0725 4.03125 6.145 4.5625 7.25 C5.63240282 9.71477612 6.03572782 10.72132303 5.6875 13.4375 C5.460625 13.953125 5.23375 14.46875 5 15 C3.25050228 12.37575342 2.34610019 10.44272784 1.375 7.5 C0.98441406 6.33984375 0.98441406 6.33984375 0.5859375 5.15625 C0 3 0 3 0 0 Z " fill="#336A92" transform="translate(206,88)"/>
<path d="M0 0 C-0.34734012 5.90478212 -1.65970358 8.08314713 -6 12 C-7.7208487 14.9254428 -9.22439682 17.70971828 -8.625 21.15625 C-8.41875 21.9296875 -8.2125 22.703125 -8 23.5 C-7.13277028 26.75211144 -6.89973703 27.69921109 -8 31 C-8.825 31.28875 -9.65 31.5775 -10.5 31.875 C-11.325 32.24625 -12.15 32.6175 -13 33 C-13.89386164 35.54775306 -13.89386164 35.54775306 -14 38 C-14.33 38 -14.66 38 -15 38 C-15.30200791 32.46318837 -14.69785705 28.40565451 -12.78125 23.21484375 C-12.05775157 21.1637257 -11.56975018 19.18789268 -11.125 17.0625 C-9.89259394 11.90503599 -6.41976487 0 0 0 Z " fill="#095496" transform="translate(96,257)"/>
<path d="M0 0 C0.66 0.66 1.32 1.32 2 2 C1.2265625 2.64066406 0.453125 3.28132812 -0.34375 3.94140625 C-1.39592064 4.81499902 -2.44799752 5.68870473 -3.5 6.5625 C-4.04591797 7.01488037 -4.59183594 7.46726074 -5.15429688 7.93334961 C-8.95818455 11.09709541 -12.66115152 14.34866095 -16.28125 17.72265625 C-18.17935058 19.13329009 -19.68901873 19.58949675 -22 20 C-22 20.66 -22 21.32 -22 22 C-23.32 21.67 -24.64 21.34 -26 21 C-26 20.34 -26 19.68 -26 19 C-25.195625 18.87625 -24.39125 18.7525 -23.5625 18.625 C-22.716875 18.41875 -21.87125 18.2125 -21 18 C-20.67 17.34 -20.34 16.68 -20 16 C-19.34 16.33 -18.68 16.66 -18 17 C-18 16.071875 -18 15.14375 -18 14.1875 C-18 12.125 -18 10.0625 -18 8 C-15.03 8 -12.06 8 -9 8 C-9 6.68 -9 5.36 -9 4 C-8.67 3.01 -8.34 2.02 -8 1 C-7.05125 1.020625 -6.1025 1.04125 -5.125 1.0625 C-2.09333717 1.22551826 -2.09333717 1.22551826 0 0 Z " fill="#0D5898" transform="translate(138,248)"/>
<path d="M0 0 C1.32 0.66 2.64 1.32 4 2 C4 2.66 4 3.32 4 4 C4.87398437 4.16822266 4.87398437 4.16822266 5.765625 4.33984375 C8.20310657 5.06000876 9.7250586 6.04379395 11.75 7.5625 C12.36359375 8.01753906 12.9771875 8.47257813 13.609375 8.94140625 C14.06828125 9.29074219 14.5271875 9.64007813 15 10 C14.73852539 11.90722656 14.73852539 11.90722656 14 14 C12.32592773 14.91308594 12.32592773 14.91308594 10.18359375 15.484375 C9.41982422 15.69707031 8.65605469 15.90976563 7.86914062 16.12890625 C7.06669922 16.33386719 6.26425781 16.53882813 5.4375 16.75 C4.63119141 16.97042969 3.82488281 17.19085938 2.99414062 17.41796875 C1.00021673 17.9606936 -0.99941917 18.48235236 -3 19 C-3 18.01 -3 17.02 -3 16 C-2.01 16 -1.02 16 0 16 C0.33 14.35 0.66 12.7 1 11 C2.32 10.67 3.64 10.34 5 10 C5 8.68 5 7.36 5 6 C3.68 5.67 2.36 5.34 1 5 C1 4.34 1 3.68 1 3 C0.34 3 -0.32 3 -1 3 C-0.67 2.01 -0.34 1.02 0 0 Z " fill="#1771B0" transform="translate(243,166)"/>
<path d="M0 0 C1.28317892 3.84953676 1.06643637 6.94738135 1 11 C-0.32 11.33 -1.64 11.66 -3 12 C-2.01 12.99 -1.02 13.98 0 15 C-0.66 16.32 -1.32 17.64 -2 19 C-2.66 18.67 -3.32 18.34 -4 18 C-6.09821215 18.39938767 -6.09821215 18.39938767 -8 19 C-7.67 20.65 -7.34 22.3 -7 24 C-7.99 24 -8.98 24 -10 24 C-10.33 24.66 -10.66 25.32 -11 26 C-11 25.34 -11 24.68 -11 24 C-12.32 23.67 -13.64 23.34 -15 23 C-14.04737966 21.51714758 -13.08771595 20.03881799 -12.125 18.5625 C-11.32449219 17.32693359 -11.32449219 17.32693359 -10.5078125 16.06640625 C-9 14 -9 14 -7 13 C-5.92302883 11.22028372 -4.91058313 9.40107721 -3.9375 7.5625 C-3.41027344 6.57378906 -2.88304687 5.58507812 -2.33984375 4.56640625 C-1.54831079 3.05026294 -0.76488103 1.52976207 0 0 Z " fill="#166FAF" transform="translate(207,150)"/>
<path d="M0 0 C0.66 1.32 1.32 2.64 2 4 C2.66 4 3.32 4 4 4 C4 4.66 4 5.32 4 6 C4.52078125 6.25523437 5.0415625 6.51046875 5.578125 6.7734375 C8.66517892 8.33688094 11.70521658 9.98081695 14.75 11.625 C15.35199219 11.94984375 15.95398438 12.2746875 16.57421875 12.609375 C18.04977297 13.40570585 19.52492686 14.20277839 21 15 C18 16 18 16 14.9375 16.3125 C13.4834375 16.6528125 13.4834375 16.6528125 12 17 C10.79074464 18.98559443 10.79074464 18.98559443 10 21 C8.5047708 18.8221005 7.02933288 16.63441055 5.5625 14.4375 C5.14162109 13.82841797 4.72074219 13.21933594 4.28710938 12.59179688 C1.46904961 8.33089051 0.36131335 5.10437217 0 0 Z " fill="#399B58" transform="translate(14,153)"/>
<path d="M0 0 C2.70376322 2.62424078 5.17968164 5.22030501 7.5 8.1875 C10.93004611 12.32346589 15.20358982 15.31599827 19.59375 18.36010742 C22.34233952 20.34506637 23.84788391 21.51885749 24.88671875 24.8046875 C24.92410156 25.52914062 24.96148437 26.25359375 25 27 C21.33437616 29.42568084 18.09064859 30.65776641 13.8125 31.625 C9.79176644 32.49509713 9.79176644 32.49509713 6 34 C6 33.01 6 32.02 6 31 C7.71509766 30.51080078 7.71509766 30.51080078 9.46484375 30.01171875 C10.95592076 29.57096014 12.44679597 29.12951844 13.9375 28.6875 C15.06961914 28.36749023 15.06961914 28.36749023 16.22460938 28.04101562 C18.18006686 27.45350149 20.09481954 26.73435295 22 26 C22.33 25.01 22.66 24.02 23 23 C22.236875 22.731875 21.47375 22.46375 20.6875 22.1875 C18.07686496 21.03396359 16.92614911 20.01370135 15 18 C14.01 17.67 13.02 17.34 12 17 C10.53515625 15.51171875 10.53515625 15.51171875 9.0625 13.6875 C7.31046323 11.55534553 5.60830878 9.61861645 3.625 7.6875 C2 6 2 6 2 4 C1.34 4 0.68 4 0 4 C0 2.68 0 1.36 0 0 Z " fill="#215C89" transform="translate(235,153)"/>
<path d="M0 0 C0.99 0 1.98 0 3 0 C4.05771739 1.63064764 5.05273046 3.30280873 6 5 C6.556875 5.556875 7.11375 6.11375 7.6875 6.6875 C8.3371875 7.3371875 8.3371875 7.3371875 9 8 C9 8.66 9 9.32 9 10 C11.75924185 11.80411967 12.88972103 12.0127245 16.25 11.625 C17.1575 11.41875 18.065 11.2125 19 11 C19 11.99 19 12.98 19 14 C19.99 13.67 20.98 13.34 22 13 C24 15 24 15 24.125 17.625 C24.08375 18.40875 24.0425 19.1925 24 20 C24.78375 20.12375 25.5675 20.2475 26.375 20.375 C29 21 29 21 31 23 C23.27933051 22.85702464 18.94219738 19.71680152 13 15 C12.34644531 14.48824219 11.69289063 13.97648438 11.01953125 13.44921875 C6.91591981 10.08842439 3.06185246 6.35164379 0 2 C0 1.34 0 0.68 0 0 Z " fill="#31A85A" transform="translate(25,174)"/>
<path d="M0 0 C5.29241275 1.13408845 7.46993736 3.28661122 10.60546875 7.44140625 C12.02075321 9.28255048 12.02075321 9.28255048 15 10 C15.69937532 11.31647119 16.36729133 12.65022151 17 14 C17.66 14.33 18.32 14.66 19 15 C19 15.66 19 16.32 19 17 C19.99 17.33 20.98 17.66 22 18 C23.37195574 19.29355827 24.71182656 20.62298702 26 22 C27.15570704 18.53287889 27.32835293 15.4585044 27.5625 11.8125 C27.64628906 10.54019531 27.73007813 9.26789063 27.81640625 7.95703125 C27.90728516 6.49330078 27.90728516 6.49330078 28 5 C28.33 5 28.66 5 29 5 C29 11.93 29 18.86 29 26 C25 26 25 26 22.44140625 23.578125 C21.47247886 22.47685631 20.51342527 21.3668501 19.5625 20.25 C14.66939285 14.70406798 9.52376645 9.62733788 4.01391602 4.69628906 C2.66105463 3.48056023 1.32825721 2.2425632 0 1 C0 0.67 0 0.34 0 0 Z " fill="#478E5F" transform="translate(172,279)"/>
<path d="M0 0 C0.99 0 1.98 0 3 0 C3 0.66 3 1.32 3 2 C3.8971875 2.433125 3.8971875 2.433125 4.8125 2.875 C7 4 7 4 10 6 C10 6.66 10 7.32 10 8 C11.65 8.33 13.3 8.66 15 9 C15 9.66 15 10.32 15 11 C15.66 11.33 16.32 11.66 17 12 C16.01 12 15.02 12 14 12 C14 11.34 14 10.68 14 10 C13.01 10.99 12.02 11.98 11 13 C11.66 13.33 12.32 13.66 13 14 C11.35 13.67 9.7 13.34 8 13 C8 11.35 8 9.7 8 8 C5.23723823 8.52268466 2.6739124 9.10869587 0 10 C0 9.34 0 8.68 0 8 C-1.32 7.34 -2.64 6.68 -4 6 C-3.34 5.566875 -2.68 5.13375 -2 4.6875 C-1.01 3.8521875 -1.01 3.8521875 0 3 C0 2.01 0 1.02 0 0 Z " fill="#2CA761" transform="translate(124,109)"/>
<path d="M0 0 C6.03518337 4.98558626 11.50757503 10.42810265 17 16 C18.66550644 17.66782609 20.33184987 19.33481811 22 21 C18.20411134 20.45773019 16.52788007 18.79872437 14 16 C10.62496331 17.1858237 8.35277269 18.27573689 6 21 C5 18 5 18 6.125 15.6875 C7.33071892 12.93330084 7.33071892 12.93330084 5.875 10 C4.09057074 7.14491319 2.10886256 4.61789835 0 2 C0 1.34 0 0.68 0 0 Z " fill="#36B4C9" transform="translate(111,153)"/>
<path d="M0 0 C4.26946934 2.74465886 8.2743552 5.54047268 12 9 C12 9.99 12 10.98 12 12 C0.63828447 15.05892341 -11.67494966 15.23572867 -23 12 C-22.67 11.34 -22.34 10.68 -22 10 C-21.46987305 10.16298584 -20.93974609 10.32597168 -20.39355469 10.49389648 C-17.44630323 11.11707603 -14.71610855 11.11186844 -11.703125 11.09765625 C-9.89521484 11.09282227 -9.89521484 11.09282227 -8.05078125 11.08789062 C-6.16939453 11.07532227 -6.16939453 11.07532227 -4.25 11.0625 C-2.98027344 11.05798828 -1.71054688 11.05347656 -0.40234375 11.04882812 C2.73181836 11.03704556 5.86588541 11.02059416 9 11 C6.85555505 8.18656154 5.32125162 6.1898305 2.25 4.375 C1.5075 3.92125 0.765 3.4675 0 3 C0 2.01 0 1.02 0 0 Z " fill="#3D855A" transform="translate(81,188)"/>
<path d="M0 0 C1.98 0 3.96 0 6 0 C6 5.28 6 10.56 6 16 C4.02 16.33 2.04 16.66 0 17 C-0.97040422 11.06975197 -0.89316269 5.93609666 0 0 Z " fill="#1D76B2" transform="translate(226,136)"/>
<path d="M0 0 C0.99 0.33 1.98 0.66 3 1 C1 4 1 4 -2 5 C-3.20882096 7.00016466 -3.20882096 7.00016466 -4 9 C-4.66 9 -5.32 9 -6 9 C-5.52449439 10.48034764 -5.04448784 11.95925021 -4.5625 13.4375 C-4.29566406 14.26121094 -4.02882813 15.08492187 -3.75390625 15.93359375 C-3.17844506 17.96219588 -3.17844506 17.96219588 -2 19 C1.82073577 19.5630558 5.51356766 19.86056609 8.9296875 17.8828125 C10.7576289 16.37924778 10.7576289 16.37924778 13 14 C13.66 14.33 14.32 14.66 15 15 C13.87720538 15.98169476 12.75168527 16.96027298 11.625 17.9375 C10.99851563 18.48277344 10.37203125 19.02804688 9.7265625 19.58984375 C6.60855393 22.13645256 4.05610329 22.34987207 0.0390625 22.26953125 C-3.37481116 21.81827209 -4.83387069 20.62561128 -7 18 C-7.98863367 15.26671869 -8.29043146 12.89314417 -8 10 C-5.92849606 6.01043685 -3.28170706 3.04729941 0 0 Z " fill="#3A8356" transform="translate(122,111)"/>
<path d="M0 0 C-1.5834829 4.35716535 -4.9792652 6.82306181 -8.4375 9.6875 C-9.06060059 10.21206787 -9.68370117 10.73663574 -10.32568359 11.27709961 C-12.21053001 12.85951407 -14.10368193 14.43136007 -16 16 C-16.55091309 16.45729492 -17.10182617 16.91458984 -17.66943359 17.38574219 C-22.04684621 21.01418868 -26.4279691 24.61838268 -31 28 C-31 26.33333333 -31 24.66666667 -31 23 C-30.05125 22.566875 -29.1025 22.13375 -28.125 21.6875 C-24.79958063 20.20697799 -24.79958063 20.20697799 -23 17 C-20.64402401 15.45001579 -18.32669855 14.14519936 -15.75 13 C-13.64862526 12.05720054 -13.64862526 12.05720054 -13 9 C-11.2578125 7.5 -11.2578125 7.5 -9.125 6 C-7.03776082 4.521218 -5.14759476 3.15253813 -3.3671875 1.3125 C-2 0 -2 0 0 0 Z " fill="#184370" transform="translate(139,251)"/>
<path d="M0 0 C-1.62226617 4.27128309 -4.8367758 6.98594455 -8.125 10 C-8.73666016 10.56452881 -9.34832031 11.12905762 -9.97851562 11.71069336 C-16.91747557 17.99934462 -24.37331726 23.57869969 -32 29 C-32.55945313 29.41620605 -33.11890625 29.83241211 -33.6953125 30.26123047 C-35.28125 31.40234375 -35.28125 31.40234375 -38 33 C-38.99 32.67 -39.98 32.34 -41 32 C-40.22398437 31.47792969 -39.44796875 30.95585937 -38.6484375 30.41796875 C-32.43283131 26.1827526 -26.35613288 21.83066042 -20.4375 17.1875 C-19.85468262 16.73205811 -19.27186523 16.27661621 -18.67138672 15.80737305 C-16.2199849 13.86575706 -13.91282507 11.91103073 -11.72265625 9.67578125 C-10 8 -10 8 -8 8 C-7.67 7.01 -7.34 6.02 -7 5 C-2.46511628 0 -2.46511628 0 0 0 Z " fill="#3593AD" transform="translate(184,174)"/>
<path d="M0 0 C0.66 0.33 1.32 0.66 2 1 C2 1.99 2 2.98 2 4 C-1.41565147 5.96010801 -4.83269541 7.91777574 -8.25 9.875 C-9.21808594 10.43058594 -10.18617187 10.98617187 -11.18359375 11.55859375 C-12.11816406 12.09355469 -13.05273438 12.62851563 -14.015625 13.1796875 C-14.87446289 13.67194824 -15.73330078 14.16420898 -16.61816406 14.67138672 C-22.63814591 18.02939627 -22.63814591 18.02939627 -25.01953125 17.8359375 C-27.45283152 16.80886401 -28.84904931 15.5152942 -30.6875 13.625 C-31.28949219 13.01914063 -31.89148438 12.41328125 -32.51171875 11.7890625 C-34 10 -34 10 -35 7 C-33 7 -33 7 -30.5 9.25 C-28.43045772 11.5264965 -27.14250707 13.19566446 -26 16 C-22.24886176 14.46892317 -18.72707111 12.89577715 -15.25 10.8125 C-12 9 -12 9 -9 9 C-9 8.34 -9 7.68 -9 7 C-8.43410156 6.74605469 -7.86820313 6.49210938 -7.28515625 6.23046875 C-6.55167969 5.88628906 -5.81820312 5.54210937 -5.0625 5.1875 C-4.33160156 4.85105469 -3.60070312 4.51460937 -2.84765625 4.16796875 C-0.66970511 3.06399866 -0.66970511 3.06399866 0 0 Z " fill="#409AAF" transform="translate(133,174)"/>
<path d="M0 0 C2.83150018 1.36408038 5.04424479 2.94424207 7.48828125 4.9140625 C8.67357422 5.86152344 8.67357422 5.86152344 9.8828125 6.828125 C10.47449219 7.31023437 11.06617188 7.79234375 11.67578125 8.2890625 C11.39995865 14.77089362 8.93023106 19.3969434 4.67578125 24.2890625 C2.4765625 25.55078125 2.4765625 25.55078125 0.67578125 26.2890625 C3.46229115 21.59599319 3.46229115 21.59599319 5.0234375 19.3515625 C7.81439716 15.29992712 7.81439716 15.29992712 8.92578125 10.6015625 C7.2716138 7.54135271 5.09620272 6.20871922 2.171875 4.40234375 C1.43130859 3.85126953 1.43130859 3.85126953 0.67578125 3.2890625 C0.67578125 2.6290625 0.67578125 1.9690625 0.67578125 1.2890625 C-0.31421875 1.2890625 -1.30421875 1.2890625 -2.32421875 1.2890625 C-2.65421875 2.9390625 -2.98421875 4.5890625 -3.32421875 6.2890625 C-4.31421875 6.6190625 -5.30421875 6.9490625 -6.32421875 7.2890625 C-5.72560133 4.93735119 -5.05497523 2.6031247 -4.32421875 0.2890625 C-2.32421875 -0.7109375 -2.32421875 -0.7109375 0 0 Z " fill="#489D53" transform="translate(155.32421875,79.7109375)"/>
<path d="M0 0 C0.33 0.99 0.66 1.98 1 3 C0.360625 3.37125 -0.27875 3.7425 -0.9375 4.125 C-3.63858072 6.58052793 -3.68407005 8.44578805 -4 12 C-4.66 12 -5.32 12 -6 12 C-6 12.66 -6 13.32 -6 14 C-6.99 14.495 -6.99 14.495 -8 15 C-8.33 15.99 -8.66 16.98 -9 18 C-9.33 17.34 -9.66 16.68 -10 16 C-10.99 16.33 -11.98 16.66 -13 17 C-13.66 15.68 -14.32 14.36 -15 13 C-14.00097656 12.14535156 -13.00195312 11.29070312 -11.97265625 10.41015625 C-10.66925232 9.29429246 -9.36586791 8.17840586 -8.0625 7.0625 C-7.0734668 6.21655273 -7.0734668 6.21655273 -6.06445312 5.35351562 C-5.43603516 4.81533203 -4.80761719 4.27714844 -4.16015625 3.72265625 C-3.57886963 3.22515869 -2.99758301 2.72766113 -2.39868164 2.21508789 C-1.57708043 1.5013317 -0.76957015 0.76957015 0 0 Z " fill="#1A619E" transform="translate(187,221)"/>
<path d="M0 0 C0.66 0.33 1.32 0.66 2 1 C2 3.97 2 6.94 2 10 C1.67 10 1.34 10 1 10 C0.97275577 12.83339965 0.95304411 15.66653117 0.9375 18.5 C0.92912109 19.29148437 0.92074219 20.08296875 0.91210938 20.8984375 C0.89108815 26.02761717 1.26062713 30.92336106 2 36 C1.01 36.495 1.01 36.495 0 37 C-1.65931655 30.27384186 -2.21583185 23.71304303 -2.25 16.8125 C-2.25902344 16.06500488 -2.26804687 15.31750977 -2.27734375 14.54736328 C-2.25011531 9.40005377 -1.41277847 4.95033091 0 0 Z " fill="#3E9BAC" transform="translate(75,102)"/>
<path d="M0 0 C0.33 0.66 0.66 1.32 1 2 C-0.109375 4.42578125 -0.109375 4.42578125 -1.75 7.3125 C-2.54664063 8.72982422 -2.54664063 8.72982422 -3.359375 10.17578125 C-3.90078125 11.10777344 -4.4421875 12.03976563 -5 13 C-5.52078125 13.94230469 -6.0415625 14.88460937 -6.578125 15.85546875 C-7.04734375 16.56316406 -7.5165625 17.27085937 -8 18 C-8.66 18 -9.32 18 -10 18 C-10.20625 18.66 -10.4125 19.32 -10.625 20 C-12.51152871 24.11606263 -15.20567979 27.4587703 -18 31 C-18.66 30.34 -19.32 29.68 -20 29 C-19.3709375 28.23558594 -18.741875 27.47117188 -18.09375 26.68359375 C-12.7531977 20.04772696 -8.3065033 13.40260331 -4.51367188 5.76342773 C-2.1788357 1.08941785 -2.1788357 1.08941785 0 0 Z " fill="#1D5D8C" transform="translate(208,146)"/>
<path d="M0 0 C0.66 0 1.32 0 2 0 C1.59054886 11.46463201 -3.09293542 23.85280636 -10 33 C-11.485 33.495 -11.485 33.495 -13 34 C-11.64530451 30.35004324 -9.9545975 26.9656763 -8.13085938 23.52929688 C-4.05095125 15.77970905 -1.42969042 8.69728336 0 0 Z " fill="#429BAC" transform="translate(189,109)"/>
<path d="M0 0 C1.32 0.33 2.64 0.66 4 1 C1.3130421 3.76598608 -1.22150368 6.1572374 -4.375 8.375 C-5.24125 9.24125 -6.1075 10.1075 -7 11 C-7.02524328 14.7500288 -7.02524328 14.7500288 -6 18 C-8.72957339 15.64264116 -9.88893396 13.41866474 -11 10 C-11 9.01 -11 8.02 -11 7 C-9.35 6.67 -7.7 6.34 -6 6 C-6 5.34 -6 4.68 -6 4 C-4.02 3.34 -2.04 2.68 0 2 C0 1.34 0 0.68 0 0 Z " fill="#6FA66A" transform="translate(124,80)"/>
<path d="M0 0 C0.66 0.33 1.32 0.66 2 1 C0.33333333 2.66666667 -1.33333333 4.33333333 -3 6 C-3.474375 6.53625 -3.94875 7.0725 -4.4375 7.625 C-7.11293372 9.97938167 -10.38096147 12 -14 12 C-14 12.66 -14 13.32 -14 14 C-15.65 14.66 -17.3 15.32 -19 16 C-18.67 17.65 -18.34 19.3 -18 21 C-18.66 21 -19.32 21 -20 21 C-20.33 19.35 -20.66 17.7 -21 16 C-14.43531288 10.06052118 -7.23476084 5.07737724 0 0 Z " fill="#398059" transform="translate(166,236)"/>
<path d="M0 0 C1.35281371 2.70562743 1.20609362 4.91893655 1.25 7.9375 C1.28867188 9.52884766 1.28867188 9.52884766 1.328125 11.15234375 C0.95400116 14.39920426 0.32777488 14.9000761 -2 17 C-1.95875 18.11375 -1.9175 19.2275 -1.875 20.375 C-2 24 -2 24 -4.5 26.9375 C-5.7375 27.9584375 -5.7375 27.9584375 -7 29 C-7.33 28.01 -7.66 27.02 -8 26 C-7.67 25.34 -7.34 24.68 -7 24 C-6.34 24 -5.68 24 -5 24 C-5.061875 22.9275 -5.12375 21.855 -5.1875 20.75 C-4.98461172 16.69223438 -4.40752341 16.00940426 -2 13 C-1.72877822 10.15217131 -1.7181368 8.5637264 -3 6 C-1.44444444 1.44444444 -1.44444444 1.44444444 0 0 Z " fill="#1D527C" transform="translate(240,185)"/>
<path d="M0 0 C6.87102286 0.92249844 12.0402259 3.02757342 17 8 C17.33 8.99 17.66 9.98 18 11 C17.01 10.67 16.02 10.34 15 10 C14.67 9.34 14.34 8.68 14 8 C10.97065509 7.34227572 10.97065509 7.34227572 8 7 C8 7.66 8 8.32 8 9 C6.02 9 4.04 9 2 9 C3.32 8.34 4.64 7.68 6 7 C6 5.68 6 4.36 6 3 C3.03 2.505 3.03 2.505 0 2 C0 1.34 0 0.68 0 0 Z " fill="#93BB51" transform="translate(46,102)"/>
<path d="M0 0 C5.75 -0.125 5.75 -0.125 8 1 C9.7404417 1.08449628 11.48409722 1.10723024 13.2265625 1.09765625 C14.7734375 1.09282227 14.7734375 1.09282227 16.3515625 1.08789062 C17.43179687 1.07951172 18.51203125 1.07113281 19.625 1.0625 C20.71296875 1.05798828 21.8009375 1.05347656 22.921875 1.04882812 C25.61463789 1.03701776 28.30729188 1.02054778 31 1 C28.20682677 2.56089092 26.0822226 3.26898988 22.890625 3.4140625 C22.13652344 3.45273438 21.38242187 3.49140625 20.60546875 3.53125 C19.82816406 3.5621875 19.05085938 3.593125 18.25 3.625 C17.06083984 3.68300781 17.06083984 3.68300781 15.84765625 3.7421875 C13.89880584 3.836108 11.94943549 3.91912822 10 4 C9.34 5.32 8.68 6.64 8 8 C7.34 7.67 6.68 7.34 6 7 C6 6.34 6 5.68 6 5 C5.34 5 4.68 5 4 5 C3.67 4.34 3.34 3.68 3 3 C2.01 3.495 2.01 3.495 1 4 C0.67 2.68 0.34 1.36 0 0 Z " fill="#8EB667" transform="translate(12,152)"/>
<path d="M0 0 C2.79852655 1.35230813 5.43557489 2.83982382 8.0625 4.5 C8.73410156 4.9228125 9.40570313 5.345625 10.09765625 5.78125 C11.74368832 6.83579211 13.37345752 7.91563835 15 9 C13.63875 8.938125 13.63875 8.938125 12.25 8.875 C9.1217954 8.99531556 7.61385994 9.3914708 5 11 C2.49962266 8.82575883 1.56371414 7.26954202 1 4 C0.01 4.495 0.01 4.495 -1 5 C-0.67 3.35 -0.34 1.7 0 0 Z " fill="#8CB75E" transform="translate(31,93)"/>
<path d="M0 0 C3.62656368 4.41494708 4.14872308 7.85407993 4.1875 13.5 C4.20167969 14.4384375 4.21585938 15.376875 4.23046875 16.34375 C4 19 4 19 2 23 C1.67 18.38 1.34 13.76 1 9 C0.01 9.33 -0.98 9.66 -2 10 C-2.33 8.35 -2.66 6.7 -3 5 C-2.01 5 -1.02 5 0 5 C0 3.35 0 1.7 0 0 Z " fill="#90B35A" transform="translate(165,68)"/>
<path d="M0 0 C0.33 0.66 0.66 1.32 1 2 C1.66 1.67 2.32 1.34 3 1 C5.37402501 0.92883618 7.75000677 0.91590915 10.125 0.9375 C11.40632813 0.94652344 12.68765625 0.95554688 14.0078125 0.96484375 C14.99523437 0.97644531 15.98265625 0.98804688 17 1 C17 1.33 17 1.66 17 2 C12.71 2 8.42 2 4 2 C4 2.66 4 3.32 4 4 C3.030625 4.2475 2.06125 4.495 1.0625 4.75 C0.051875 5.1625 -0.95875 5.575 -2 6 C-2.96877057 8.03243548 -2.96877057 8.03243548 -3 10 C-3.66 10 -4.32 10 -5 10 C-5.33 10.99 -5.66 11.98 -6 13 C-6.99 11.35 -7.98 9.7 -9 8 C-7.68 8 -6.36 8 -5 8 C-4.67 7.34 -4.34 6.68 -4 6 C-4.66 5.67 -5.32 5.34 -6 5 C-4.68 5 -3.36 5 -2 5 C-1.34 3.35 -0.68 1.7 0 0 Z " fill="#165180" transform="translate(183,230)"/>
<path d="M0 0 C4.34619495 1.5014128 6.18432103 4.77112276 8.5 8.5 C9.09155884 9.43416748 9.09155884 9.43416748 9.69506836 10.38720703 C12.77138394 15.36219113 15.16635186 20.434942 17 26 C15.68 26 14.36 26 13 26 C12.95875 25.05125 12.9175 24.1025 12.875 23.125 C12.11640455 17.70489048 8.94585034 13.4889148 6 9 C5.59910156 8.360625 5.19820313 7.72125 4.78515625 7.0625 C2.8929176 4.01097521 2.8929176 4.01097521 0 2 C0 1.34 0 0.68 0 0 Z " fill="#78A650" transform="translate(78,161)"/>
<path d="M0 0 C1.41750563 0.11509661 2.83401169 0.24253658 4.25 0.375 C5.03890625 0.44460937 5.8278125 0.51421875 6.640625 0.5859375 C9.085877 1.01507113 10.84836903 1.78600638 13 3 C12.34 3 11.68 3 11 3 C11 3.66 11 4.32 11 5 C12.65 5.33 14.3 5.66 16 6 C16 6.66 16 7.32 16 8 C9.82777121 6.75971762 3.93317878 5.10396411 -2 3 C1 2 1 2 2 2 C1.34 1.34 0.68 0.68 0 0 Z " fill="#328C46" transform="translate(49,173)"/>
<path d="M0 0 C0.99 0.33 1.98 0.66 3 1 C2.44271087 4.34373475 1.64826111 7.03312999 0 10 C-0.66 10 -1.32 10 -2 10 C-2 12.64 -2 15.28 -2 18 C-2.33 18 -2.66 18 -3 18 C-3.75612577 12.76528314 -4.2063366 8.22745859 -3 3 C-2.34 3 -1.68 3 -1 3 C-0.67 2.01 -0.34 1.02 0 0 Z " fill="#99BA60" transform="translate(115,70)"/>
<path d="M0 0 C0.33 1.32 0.66 2.64 1 4 C0.154375 3.649375 -0.69125 3.29875 -1.5625 2.9375 C-5.60403761 1.83526247 -7.96284536 1.89895783 -12 3 C-14.58297781 5.18991597 -16.48415844 6.96831688 -18 10 C-18.99 9.67 -19.98 9.34 -21 9 C-20.67 8.01 -20.34 7.02 -20 6 C-19.34 6 -18.68 6 -18 6 C-17.76796875 5.37738281 -17.5359375 4.75476563 -17.296875 4.11328125 C-15.20341912 0.70195707 -12.26245558 0.46042281 -8.5546875 -0.5390625 C-5.47003435 -1.09562071 -3.0056769 -0.87006437 0 0 Z " fill="#8AA959" transform="translate(147,70)"/>
<path d="M0 0 C3.05507993 1.52753997 5.44341223 2.80863905 8 5 C8 5.66 8 6.32 8 7 C8.99 7.33 9.98 7.66 11 8 C10.67 10.31 10.34 12.62 10 15 C8 11.25 8 11.25 8 9 C7.01 8.67 6.02 8.34 5 8 C5 8.66 5 9.32 5 10 C4.34 10 3.68 10 3 10 C2.01 6.7 1.02 3.4 0 0 Z " fill="#2B7FBD" transform="translate(209,92)"/>
<path d="M0 0 C0 3.49567338 -0.59188682 4.13623833 -2.6875 6.8125 C-3.23921875 7.51761719 -3.7909375 8.22273437 -4.359375 8.94921875 C-4.90078125 9.62597656 -5.4421875 10.30273438 -6 11 C-7.2065625 12.546875 -7.2065625 12.546875 -8.4375 14.125 C-11.38146915 17.42798978 -14.57272669 20.21472313 -18 23 C-18.66 22.67 -19.32 22.34 -20 22 C-19.14277344 21.16597656 -18.28554687 20.33195312 -17.40234375 19.47265625 C-11.11902206 13.3068313 -5.11732974 7.20147859 0 0 Z " fill="#48A2B1" transform="translate(175,143)"/>
<path d="M0 0 C-0.40810525 2.92475428 -0.81045928 5.55366218 -1.96875 8.28125 C-3.17201571 11.45349595 -3.65033059 14.45590917 -4.125 17.8125 C-4.29257813 18.97394531 -4.46015625 20.13539062 -4.6328125 21.33203125 C-4.75398438 22.21246094 -4.87515625 23.09289062 -5 24 C-5.33 24 -5.66 24 -6 24 C-6.09201633 18.93910161 -5.8688263 14.09815867 -5.21875 9.078125 C-4.93021014 6.6852641 -4.93021014 6.6852641 -5 3 C-2.64285714 0 -2.64285714 0 0 0 Z " fill="#49A2B2" transform="translate(96,70)"/>
<path d="M0 0 C0.33 0 0.66 0 1 0 C1.33 4.29 1.66 8.58 2 13 C3.70846036 11.29153964 5.40500523 9.570449 7.0625 7.8125 C9 6 9 6 11 6 C9.55575365 9.23861303 7.74227753 11.61969163 5.375 14.25 C4.74335937 14.95640625 4.11171875 15.6628125 3.4609375 16.390625 C2.97882813 16.92171875 2.49671875 17.4528125 2 18 C1.01 17.67 0.02 17.34 -1 17 C-0.67 11.39 -0.34 5.78 0 0 Z " fill="#0C325F" transform="translate(80,288)"/>
<path d="M0 0 C2.5882195 3.88232925 3.13053468 6.72514539 3.09765625 11.328125 C3.09443359 12.12734375 3.09121094 12.9265625 3.08789062 13.75 C3.07951172 14.575 3.07113281 15.4 3.0625 16.25 C3.05798828 17.09046875 3.05347656 17.9309375 3.04882812 18.796875 C3.03707961 20.86461401 3.01914522 22.93231624 3 25 C2.67 25 2.34 25 2 25 C1.67 22.03 1.34 19.06 1 16 C0.34 16 -0.32 16 -1 16 C-1.33 14.02 -1.66 12.04 -2 10 C-1.34 10.66 -0.68 11.32 0 12 C0 8.04 0 4.08 0 0 Z " fill="#389559" transform="translate(197,272)"/>
<path d="M0 0 C0.66 1.32 1.32 2.64 2 4 C2.66 4 3.32 4 4 4 C4 4.66 4 5.32 4 6 C4.56203125 6.27585938 5.1240625 6.55171875 5.703125 6.8359375 C8.08618794 8.04368028 10.4179008 9.32176809 12.75 10.625 C13.54921875 11.07101563 14.3484375 11.51703125 15.171875 11.9765625 C15.77515625 12.31429687 16.3784375 12.65203125 17 13 C13.64106891 14.1196437 12.32285646 14.07992835 9 13 C7.99357052 11.67151309 6.99307821 10.33849671 6 9 C4.68 9 3.36 9 2 9 C0.14223235 5.86501708 -0.20140476 3.62528568 0 0 Z " fill="#3FA74C" transform="translate(14,153)"/>
<path d="M0 0 C-0.103125 0.721875 -0.20625 1.44375 -0.3125 2.1875 C0.12400412 6.11603704 2.19863304 7.33528509 5 10 C5.66015625 12.15234375 5.66015625 12.15234375 6 14 C0.90789714 10.43679155 -3.22660027 6.95258714 -7 2 C-1.125 0 -1.125 0 0 0 Z " fill="#439963" transform="translate(166,265)"/>
<path d="M0 0 C0.28875 0.639375 0.5775 1.27875 0.875 1.9375 C1.82823451 4.15206079 1.82823451 4.15206079 4 5 C4.33 4.34 4.66 3.68 5 3 C7 5 7 5 7 8 C7.99 8 8.98 8 10 8 C10 8.66 10 9.32 10 10 C6.24654344 9.28028381 3.13908031 7.66887798 -0.25 5.9375 C-1.32765625 5.38964844 -2.4053125 4.84179688 -3.515625 4.27734375 C-4.33546875 3.85582031 -5.1553125 3.43429688 -6 3 C-5.67 2.34 -5.34 1.68 -5 1 C-4.01 1 -3.02 1 -2 1 C-1.34 0.67 -0.68 0.34 0 0 Z " fill="#81C755" transform="translate(82,176)"/>
<path d="M0 0 C3.54209335 0.5956435 5.45829708 1.94491395 8.125 4.3125 C9.14980469 5.20388672 9.14980469 5.20388672 10.1953125 6.11328125 C12.83657005 8.87459597 13.95113507 10.9249715 14.125 14.75 C14.08375 15.4925 14.0425 16.235 14 17 C13.34 17 12.68 17 12 17 C11.71125 15.865625 11.4225 14.73125 11.125 13.5625 C10.75375 12.386875 10.3825 11.21125 10 10 C9.34 9.67 8.68 9.34 8 9 C7.7525 8.38125 7.505 7.7625 7.25 7.125 C5.47940018 4.1149803 3.13379754 3.36252067 0 2 C0 1.34 0 0.68 0 0 Z " fill="#89A954" transform="translate(154,109)"/>
<path d="M0 0 C2.64 0.66 5.28 1.32 8 2 C8.33 3.32 8.66 4.64 9 6 C9.66 6 10.32 6 11 6 C11 6.66 11 7.32 11 8 C12.32 7.67 13.64 7.34 15 7 C15 8.32 15 9.64 15 11 C12.32119785 10.03265478 10.1859312 9.14649125 7.9375 7.375 C5.85229894 5.61416866 5.85229894 5.61416866 2 6 C1.34 4.02 0.68 2.04 0 0 Z " fill="#82C155" transform="translate(149,74)"/>
<path d="M0 0 C8.44430279 0.51755404 16.68086307 1.4560881 25 3 C25 3.66 25 4.32 25 5 C16.21156902 5.62774507 8.39685444 3.30784711 0 1 C0 0.67 0 0.34 0 0 Z " fill="#7DC557" transform="translate(42,170)"/>
<path d="M0 0 C0.42410156 0.38671875 0.84820312 0.7734375 1.28515625 1.171875 C5.30304806 4.7394097 9.25403771 7.48173429 14 10 C14 10.66 14 11.32 14 12 C15.98 11.67 17.96 11.34 20 11 C20.33 11.66 20.66 12.32 21 13 C15.75137048 13.56235316 12.97090007 13.40601025 8.6875 10.1875 C6.82488313 8.65735835 5.11046574 7.11717758 3.45703125 5.36328125 C1.93064107 3.74507398 1.93064107 3.74507398 -1 3 C-0.67 2.01 -0.34 1.02 0 0 Z " fill="#84A75B" transform="translate(141,120)"/>
<path d="M0 0 C0.99 0.99 1.98 1.98 3 3 C2 6 2 6 1 7 C1.66 7.66 2.32 8.32 3 9 C2.21625 9.5775 1.4325 10.155 0.625 10.75 C-1.80047244 12.82897637 -2.85694417 14.09040333 -4 17 C-5 15 -5 15 -4.00390625 11.5234375 C-3.53099953 10.13802064 -3.05018356 8.75528453 -2.5625 7.375 C-2.31951172 6.66859375 -2.07652344 5.9621875 -1.82617188 5.234375 C-1.22412795 3.48726713 -0.61291983 1.74332214 0 0 Z " fill="#1A76B6" transform="translate(213,133)"/>
<path d="M0 0 C0.66 0 1.32 0 2 0 C1.98839844 1.03640625 1.97679687 2.0728125 1.96484375 3.140625 C1.95546163 4.51041486 1.94636188 5.88020668 1.9375 7.25 C1.92912109 7.93191406 1.92074219 8.61382812 1.91210938 9.31640625 C1.89571608 12.69342554 1.94371232 15.77291639 3 19 C2.01 18.67 1.02 18.34 0 18 C-1.41880263 15.16239474 -1.1320472 12.72317025 -1.125 9.5625 C-1.12757813 8.40878906 -1.13015625 7.25507813 -1.1328125 6.06640625 C-1 3 -1 3 0 0 Z " fill="#2D6996" transform="translate(232,134)"/>
<path d="M0 0 C0.66 0.33 1.32 0.66 2 1 C2.33 0.67 2.66 0.34 3 0 C3.66 0.33 4.32 0.66 5 1 C4.67 1.66 4.34 2.32 4 3 C4.66 3 5.32 3 6 3 C6 3.66 6 4.32 6 5 C4.02 5.66 2.04 6.32 0 7 C-0.66 6.34 -1.32 5.68 -2 5 C-3.65 5.66 -5.3 6.32 -7 7 C-5.66667905 3.00003714 -3.5042173 2.16217663 0 0 Z " fill="#195E9B" transform="translate(138,217)"/>
<path d="M0 0 C0.33 0.99 0.66 1.98 1 3 C1.66 3 2.32 3 3 3 C3.9765625 9.0546875 3.9765625 9.0546875 4 11 C3.34 11.66 2.68 12.32 2 13 C0.35 11.02 -1.3 9.04 -3 7 C-2.01 4.69 -1.02 2.38 0 0 Z " fill="#3DB5D0" transform="translate(103,201)"/>
<path d="M0 0 C0.66 0.33 1.32 0.66 2 1 C-10.83018868 14.55188679 -10.83018868 14.55188679 -18 15 C-14.88699264 11.70652845 -11.52416227 9.0558342 -7.875 6.375 C-3.76794323 3.38411448 -3.76794323 3.38411448 0 0 Z " fill="#3E9FB2" transform="translate(152,167)"/>
<path d="M0 0 C3.37910386 3.27971845 6.4700798 6.6886696 9.5078125 10.28515625 C11.56232357 12.64623049 13.75469885 14.82073711 16 17 C12 17 12 17 10.4375 15.609375 C9.963125 14.99578125 9.48875 14.3821875 9 13.75 C7.26780889 11.57377005 5.62625621 9.63609158 3.625 7.6875 C2 6 2 6 2 4 C1.34 4 0.68 4 0 4 C0 2.68 0 1.36 0 0 Z " fill="#2A5F91" transform="translate(235,153)"/>
<path d="M0 0 C6.20101304 3.49800736 10.39973733 8.64324969 15 14 C14.01 14.33 13.02 14.66 12 15 C11.55269531 14.46890625 11.10539062 13.9378125 10.64453125 13.390625 C7.91445553 10.20068578 5.37236252 7.29313645 2.0625 4.6875 C1.381875 4.130625 0.70125 3.57375 0 3 C0 2.01 0 1.02 0 0 Z " fill="#4F8242" transform="translate(54,121)"/>
<path d="M0 0 C2.375 0.6875 2.375 0.6875 5 2 C5.72455635 3.64232772 6.37774395 5.31624835 7 7 C8.52264511 9.10133233 10.12066885 11.11967413 11.7578125 13.1328125 C13 15 13 15 13 18 C12.34 18 11.68 18 11 18 C10.72027344 17.43152344 10.44054688 16.86304688 10.15234375 16.27734375 C7.17818827 10.5489864 3.80017865 6.30217741 -1 2 C-0.67 1.34 -0.34 0.68 0 0 Z " fill="#35864A" transform="translate(49,119)"/>
<path d="M0 0 C2.82174471 1.41087235 2.93769801 3.07866953 4 6 C4.37125 6.928125 4.7425 7.85625 5.125 8.8125 C5.41375 9.534375 5.7025 10.25625 6 11 C5.01 10.67 4.02 10.34 3 10 C2.67 9.01 2.34 8.02 2 7 C2 10.63 2 14.26 2 18 C0.07377557 14.14755114 -0.37364748 12.06313037 -0.6875 7.875 C-0.77386719 6.82054688 -0.86023438 5.76609375 -0.94921875 4.6796875 C-1 2 -1 2 0 0 Z " fill="#53A057" transform="translate(31,96)"/>
<path d="M0 0 C0.33 0 0.66 0 1 0 C2.125 5.625 2.125 5.625 1 9 C0.175 9.28875 -0.65 9.5775 -1.5 9.875 C-2.325 10.24625 -3.15 10.6175 -4 11 C-4.89386164 13.54775306 -4.89386164 13.54775306 -5 16 C-5.33 16 -5.66 16 -6 16 C-6 13.36 -6 10.72 -6 8 C-4.68 8.33 -3.36 8.66 -2 9 C-2 8.01 -2 7.02 -2 6 C-2 3 -2 3 0 0 Z " fill="#064D8A" transform="translate(87,279)"/>
<path d="M0 0 C0.33 0.66 0.66 1.32 1 2 C-1.22576225 3.46376246 -3.45532436 4.92107541 -5.6875 6.375 C-6.31333984 6.7875 -6.93917969 7.2 -7.58398438 7.625 C-10.93253468 9.79892795 -14.13253709 11.87565877 -18 13 C-18.99 12.67 -19.98 12.34 -21 12 C-20.47043701 11.70754395 -19.94087402 11.41508789 -19.39526367 11.11376953 C-16.99193111 9.78552194 -14.58970619 8.45528352 -12.1875 7.125 C-11.35412109 6.66480469 -10.52074219 6.20460937 -9.66210938 5.73046875 C-8.85966797 5.28574219 -8.05722656 4.84101563 -7.23046875 4.3828125 C-6.49207764 3.97434082 -5.75368652 3.56586914 -4.99291992 3.14501953 C-3.28741338 2.16513154 -1.63660994 1.09107329 0 0 Z " fill="#3999AC" transform="translate(132,182)"/>
<path d="M0 0 C0.99 0 1.98 0 3 0 C4.05771739 1.63064764 5.05273046 3.30280873 6 5 C6.556875 5.556875 7.11375 6.11375 7.6875 6.6875 C8.3371875 7.3371875 8.3371875 7.3371875 9 8 C9 8.66 9 9.32 9 10 C9.5775 10.2475 10.155 10.495 10.75 10.75 C13.3002997 12.16683317 15.01785701 13.87627537 17 16 C12.07565405 16 9.40373478 12.30758408 6 9 C0 2.68421053 0 2.68421053 0 0 Z " fill="#408C59" transform="translate(25,174)"/>
<path d="M0 0 C0.99 0.33 1.98 0.66 3 1 C1 4 1 4 -2 5 C-3.20882096 7.00016466 -3.20882096 7.00016466 -4 9 C-4.66 9 -5.32 9 -6 9 C-6 11.97 -6 14.94 -6 18 C-8 15 -8 15 -8.0625 11.8125 C-6.62785031 6.66463934 -3.71092228 3.73030046 0 0 Z " fill="#468860" transform="translate(122,111)"/>
<path d="M0 0 C4.28730064 0.54762159 8.07335074 1.14121306 12.01171875 3.046875 C9.01171875 5.046875 9.01171875 5.046875 5.875 4.5859375 C4.11736328 4.13347656 4.11736328 4.13347656 2.32421875 3.671875 C1.14472656 3.37539062 -0.03476562 3.07890625 -1.25 2.7734375 C-2.15363281 2.53367188 -3.05726562 2.29390625 -3.98828125 2.046875 C-1.98828125 0.046875 -1.98828125 0.046875 0 0 Z " fill="#439443" transform="translate(63.98828125,174.953125)"/>
<path d="M0 0 C2.31452922 0.4479734 4.62660039 0.90866461 6.9375 1.375 C8.22527344 1.63023437 9.51304688 1.88546875 10.83984375 2.1484375 C11.88269531 2.42945313 12.92554688 2.71046875 14 3 C14.33 3.66 14.66 4.32 15 5 C18.02934491 5.65772428 18.02934491 5.65772428 21 6 C20.67 6.66 20.34 7.32 20 8 C15.11837396 6.86676538 10.51456984 5.53990078 5.859375 3.68359375 C3.92798632 2.97352438 2.00309422 2.46532056 0 2 C0 1.34 0 0.68 0 0 Z " fill="#3CA050" transform="translate(36,169)"/>
<path d="M0 0 C0.66 0.33 1.32 0.66 2 1 C2 3.97 2 6.94 2 10 C1.67 10 1.34 10 1 10 C0.67 13.96 0.34 17.92 0 22 C-0.33 22 -0.66 22 -1 22 C-2.51708428 7.40318907 -2.51708428 7.40318907 0 0 Z " fill="#35ABBE" transform="translate(75,102)"/>
<path d="M0 0 C3.60244452 0.30878096 4.99345998 0.99447732 7.8125 3.375 C10 6 10 6 10 9 C8.68 8.67 7.36 8.34 6 8 C6 7.01 6 6.02 6 5 C3.69 4.67 1.38 4.34 -1 4 C-0.67 2.68 -0.34 1.36 0 0 Z " fill="#319C73" transform="translate(167,235)"/>
<path d="M0 0 C0.99 0.33 1.98 0.66 3 1 C-2.75 6 -2.75 6 -5 6 C-5 6.66 -5 7.32 -5 8 C-7.25 9.6875 -7.25 9.6875 -10 11 C-12.171875 10.58203125 -12.171875 10.58203125 -14 10 C-11.73784237 8.29964638 -9.46661767 6.61484079 -7.1875 4.9375 C-6.54490234 4.45216797 -5.90230469 3.96683594 -5.24023438 3.46679688 C-3.54907099 2.23128373 -1.77779254 1.10723982 0 0 Z " fill="#184A74" transform="translate(155,203)"/>
<path d="M0 0 C0.66 0 1.32 0 2 0 C5.0017506 7.07555499 5.34855655 13.37048445 5 21 C3.42118051 18.17340381 2.73170945 15.97076138 2.5 12.75 C2.097048 8.33218077 1.16649905 4.27716317 0 0 Z " fill="#7FA34F" transform="translate(64,114)"/>
<path d="M0 0 C0.33 0.66 0.66 1.32 1 2 C1.66 2 2.32 2 3 2 C2.67 2.99 2.34 3.98 2 5 C3.65 5 5.3 5 7 5 C6.67 6.65 6.34 8.3 6 10 C2.46627288 8.03681826 -0.24479785 5.95929119 -3 3 C-2.01 2.01 -1.02 1.02 0 0 Z M3 1 C5 2 5 2 5 2 Z " fill="#30AB6A" transform="translate(144,95)"/>
<path d="M0 0 C0.66 0 1.32 0 2 0 C2.66 0.66 3.32 1.32 4 2 C4.66 2 5.32 2 6 2 C6.33 3.65 6.66 5.3 7 7 C4.75 7.3125 4.75 7.3125 2 7 C-0.3125 4.5 -0.3125 4.5 -2 2 C-1.34 2 -0.68 2 0 2 C0 1.34 0 0.68 0 0 Z " fill="#3CB3D1" transform="translate(108,212)"/>
<path d="M0 0 C0.66 0.33 1.32 0.66 2 1 C0.21118264 2.00508801 -1.58114696 3.00392736 -3.375 4 C-4.37273437 4.556875 -5.37046875 5.11375 -6.3984375 5.6875 C-9 7 -9 7 -11 7 C-10.01 8.485 -10.01 8.485 -9 10 C-9.33 10.99 -9.66 11.98 -10 13 C-11.32 11.02 -12.64 9.04 -14 7 C-11.71296692 5.80274117 -9.42115138 4.61702982 -7.125 3.4375 C-6.14853516 2.92413086 -6.14853516 2.92413086 -5.15234375 2.40039062 C-3.46470143 1.53917109 -1.73420407 0.76313297 0 0 Z " fill="#3B9AA7" transform="translate(109,195)"/>
<path d="M0 0 C2.50582549 3.27018107 4.82818305 6.64270059 7.125 10.0625 C7.82882813 11.10535156 8.53265625 12.14820313 9.2578125 13.22265625 C11 16 11 16 12 19 C7.84945238 17.61648413 6.54238828 14.72615844 4.3125 11.1875 C3.68891602 10.24293945 3.68891602 10.24293945 3.05273438 9.27929688 C0.84965713 5.83178847 0 4.18838607 0 0 Z " fill="#4399AC" transform="translate(98,133)"/>
<path d="M0 0 C2.80500965 4.20751447 3.12829139 7.24985414 3.0625 12.25 C3.05347656 13.14203125 3.04445313 14.0340625 3.03515625 14.953125 C3.02355469 15.62859375 3.01195313 16.3040625 3 17 C-0.47520838 13.52479162 -1.12746637 9.46446149 -1.1875 4.6875 C-1 1 -1 1 0 0 Z " fill="#39AEC4" transform="translate(77,133)"/>
<path d="M0 0 C2.97 0.99 5.94 1.98 9 3 C9 5.31 9 7.62 9 10 C7.86800647 9.0919838 6.74467637 8.17316174 5.625 7.25 C4.99851562 6.73953125 4.37203125 6.2290625 3.7265625 5.703125 C2 4 2 4 0 0 Z " fill="#87C354" transform="translate(59,124)"/>
<path d="M0 0 C0.671875 1.68359375 0.671875 1.68359375 1 4 C-0.109375 6.47265625 -0.109375 6.47265625 -1.75 9.0625 C-2.28109375 9.91972656 -2.8121875 10.77695313 -3.359375 11.66015625 C-4.77979959 13.68595227 -6.18457571 15.33221563 -8 17 C-8.66 16.67 -9.32 16.34 -10 16 C-9.41992188 15.27296875 -9.41992188 15.27296875 -8.828125 14.53125 C-5.22058046 9.88787584 -2.47597386 5.33286677 0 0 Z " fill="#3E8758" transform="translate(166,89)"/>
<path d="M0 0 C2.05078125 0.03255208 4.1015625 0.06510417 6.15234375 0.09765625 C3.36234924 3.58514939 0.89998544 6.59922846 -2.84765625 9.09765625 C-2.84765625 6.09765625 -2.84765625 6.09765625 -1.84765625 4.09765625 C-2.17765625 3.10765625 -2.50765625 2.11765625 -2.84765625 1.09765625 C-1.84765625 0.09765625 -1.84765625 0.09765625 0 0 Z " fill="#0C508E" transform="translate(106.84765625,271.90234375)"/>
<path d="M0 0 C3.59309034 1.19769678 4.42093253 2.4676789 6.6875 5.4375 C7.31011719 6.24058594 7.93273437 7.04367188 8.57421875 7.87109375 C10 10 10 10 10 12 C10.66 12 11.32 12 12 12 C11.67 12.66 11.34 13.32 11 14 C10.34 13.67 9.68 13.34 9 13 C9 12.34 9 11.68 9 11 C8.34 11 7.68 11 7 11 C5.2734375 9.1015625 5.2734375 9.1015625 3.375 6.625 C2.42753906 5.40683594 2.42753906 5.40683594 1.4609375 4.1640625 C0 2 0 2 0 0 Z " fill="#4CA49E" transform="translate(118,98)"/>
<path d="M0 0 C-0.59167969 -0.02320313 -1.18335938 -0.04640625 -1.79296875 -0.0703125 C-6.46138415 -0.1769321 -9.67555355 0.1299691 -14 2 C-17.3125 2.125 -17.3125 2.125 -20 2 C-14.59563769 -2.60371604 -6.05588977 -4.03725985 0 0 Z " fill="#91B950" transform="translate(147,56)"/>
<path d="M0 0 C4.25983217 3.49914785 6.15672955 7.92120163 8 13 C8 13.66 8 14.32 8 15 C7.34 15 6.68 15 6 15 C4.99267601 13.06629769 3.99436712 11.12789694 3 9.1875 C2.443125 8.10855469 1.88625 7.02960938 1.3125 5.91796875 C0 3 0 3 0 0 Z " fill="#3C8C56" transform="translate(189,257)"/>
<path d="M0 0 C5.03163018 4.29785078 10.02718443 8.63425542 15 13 C14.01 13.33 13.02 13.66 12 14 C9.99387601 12.04761147 7.99507567 10.08862178 6 8.125 C5.42765625 7.56941406 4.8553125 7.01382813 4.265625 6.44140625 C2.80549218 4.99865596 1.39850702 3.5025626 0 2 C0 1.34 0 0.68 0 0 Z " fill="#3C97AA" transform="translate(118,160)"/>
<path d="M0 0 C1.1446875 0.495 1.1446875 0.495 2.3125 1 C4.99069135 2.17436686 4.99069135 2.17436686 8 2 C8.33 2.66 8.66 3.32 9 4 C8.34 4 7.68 4 7 4 C7.66 5.32 8.32 6.64 9 8 C5.08158173 6.69386058 2.67359191 5.16870152 0 2 C0 1.34 0 0.68 0 0 Z " fill="#339157" transform="translate(149,257)"/>
<path d="M0 0 C4.41743795 1.38833764 7.0833938 3.39713352 10 7 C9.8125 9.3125 9.8125 9.3125 9 11 C8.01 11 7.02 11 6 11 C6.66 9.35 7.32 7.7 8 6 C7.236875 5.7525 6.47375 5.505 5.6875 5.25 C2.7635955 3.89004442 1.69995644 2.68414174 0 0 Z " fill="#1E4F75" transform="translate(250,170)"/>
<path d="M0 0 C3.27126868 2.18084579 3.59023384 2.81286107 4.75 6.375 C5.01296875 7.14585938 5.2759375 7.91671875 5.546875 8.7109375 C6.03705634 11.1871984 5.80000683 12.63241221 5 15 C3.25050228 12.37575342 2.34610019 10.44272784 1.375 7.5 C0.98441406 6.33984375 0.98441406 6.33984375 0.5859375 5.15625 C0 3 0 3 0 0 Z " fill="#27668D" transform="translate(206,88)"/>
<path d="M0 0 C0.33 0.66 0.66 1.32 1 2 C-0.328125 4.53125 -0.328125 4.53125 -2.25 7.5 C-2.87390625 8.4796875 -3.4978125 9.459375 -4.140625 10.46875 C-6 13 -6 13 -9 15 C-8.33333333 13.33333333 -7.66666667 11.66666667 -7 10 C-6.5978125 8.7625 -6.5978125 8.7625 -6.1875 7.5 C-4.67933526 4.32491633 -2.56736017 2.36467384 0 0 Z " fill="#3698AF" transform="translate(199,152)"/>
<path d="M0 0 C0.33 0.66 0.66 1.32 1 2 C3.52733235 2.65555119 3.52733235 2.65555119 6 3 C6 3.66 6 4.32 6 5 C6.66 5.33 7.32 5.66 8 6 C7.01 6 6.02 6 5 6 C5 5.34 5 4.68 5 4 C4.01 4.99 3.02 5.98 2 7 C2.66 7.33 3.32 7.66 4 8 C2.35 7.67 0.7 7.34 -1 7 C-0.67 4.69 -0.34 2.38 0 0 Z " fill="#2FAB6A" transform="translate(133,115)"/>
<path d="M0 0 C8.44646925 6.15034169 8.44646925 6.15034169 12 10 C9 10 9 10 6 9 C6 8.34 6 7.68 6 7 C5.38125 6.773125 4.7625 6.54625 4.125 6.3125 C1.38589791 4.62070165 0.94975528 3.00755839 0 0 Z " fill="#51A24C" transform="translate(42,111)"/>
<path d="M0 0 C0.66 0.66 1.32 1.32 2 2 C1.8125 4.0625 1.8125 4.0625 1 6 C0.01 6.33 -0.98 6.66 -2 7 C-2.99 6.01 -3.98 5.02 -5 4 C-3.35 2.68 -1.7 1.36 0 0 Z " fill="#155D9B" transform="translate(126,225)"/>
<path d="M0 0 C1.9375 0.3125 1.9375 0.3125 4 1 C4.33 1.99 4.66 2.98 5 4 C7.01508358 4.73323796 7.01508358 4.73323796 9 5 C9.33 6.65 9.66 8.3 10 10 C5.52273027 7.04331244 2.40016348 4.94151304 0 0 Z " fill="#3E8D5F" transform="translate(37,124)"/>
<path d="M0 0 C2.5308463 2.5308463 2.82870582 4.48137707 3.6875 7.9375 C3.95949219 8.99839844 4.23148438 10.05929688 4.51171875 11.15234375 C5 14 5 14 4 17 C0.61504892 11.55464391 0.32626495 6.32278971 0 0 Z " fill="#3E945E" transform="translate(32,106)"/>
<path d="M0 0 C0.66 0.99 1.32 1.98 2 3 C2.86175198 4.07327292 3.7369604 5.13587416 4.625 6.1875 C5.40875 7.115625 6.1925 8.04375 7 9 C6.67 9.66 6.34 10.32 6 11 C5.21625 10.525625 4.4325 10.05125 3.625 9.5625 C2.11051322 8.66101977 0.5764103 7.78820515 -1 7 C-0.67 4.69 -0.34 2.38 0 0 Z " fill="#428D60" transform="translate(178,240)"/>
<path d="M0 0 C0.33 0.99 0.66 1.98 1 3 C3.03277473 3.95117358 3.03277473 3.95117358 5.4375 4.5625 C9.80269058 5.80269058 9.80269058 5.80269058 12 8 C4.73846154 7.63076923 4.73846154 7.63076923 1 4.4375 C0.34 3.633125 -0.32 2.82875 -1 2 C-0.67 1.34 -0.34 0.68 0 0 Z " fill="#3A8D5A" transform="translate(44,189)"/>
<path d="M0 0 C0.66 0.33 1.32 0.66 2 1 C0.25 7.75 0.25 7.75 -2 10 C-2.66 9.67 -3.32 9.34 -4 9 C-4 7.68 -4 6.36 -4 5 C-3.01 5 -2.02 5 -1 5 C-1.33 3.68 -1.66 2.36 -2 1 C-1.34 0.67 -0.68 0.34 0 0 Z " fill="#1A70AB" transform="translate(237,184)"/>
<path d="M0 0 C0.33 0.66 0.66 1.32 1 2 C0.109375 3.91015625 0.109375 3.91015625 -1.25 6.0625 C-1.90742188 7.13177734 -1.90742188 7.13177734 -2.578125 8.22265625 C-4 10 -4 10 -7 11 C-3.57894737 1.78947368 -3.57894737 1.78947368 0 0 Z " fill="#3CADC0" transform="translate(183,132)"/>
<path d="M0 0 C0.99 0 1.98 0 3 0 C3.33 1.32 3.66 2.64 4 4 C3.34 4 2.68 4 2 4 C2 4.99 2 5.98 2 7 C1.34 7.66 0.68 8.32 0 9 C-1.32 8.01 -2.64 7.02 -4 6 C-3.34 5.566875 -2.68 5.13375 -2 4.6875 C-1.01 3.8521875 -1.01 3.8521875 0 3 C0 2.01 0 1.02 0 0 Z " fill="#3AA166" transform="translate(124,109)"/>
<path d="M0 0 C-1.32 0.99 -2.64 1.98 -4 3 C-3.67 5.31 -3.34 7.62 -3 10 C-6.0916909 7.47043472 -6.90931332 4.77545388 -8 1 C-2.25 -1.125 -2.25 -1.125 0 0 Z " fill="#5EA19A" transform="translate(121,88)"/>
<path d="M0 0 C7.81636537 1.91722169 7.81636537 1.91722169 10 5 C10 5.66 10 6.32 10 7 C6.4124787 5.66749209 3.1635377 4.169283 0 2 C0 1.34 0 0.68 0 0 Z " fill="#437E45" transform="translate(87,185)"/>
<path d="M0 0 C1.65 1.65 3.3 3.3 5 5 C4.34 5.66 3.68 6.32 3 7 C1.68 7 0.36 7 -1 7 C-1.625 4.625 -1.625 4.625 -2 2 C-1.34 1.34 -0.68 0.68 0 0 Z " fill="#1C75B3" transform="translate(237,159)"/>
<path d="M0 0 C1.44010481 0.25662245 2.8770687 0.53090821 4.3125 0.8125 C5.11300781 0.96332031 5.91351563 1.11414063 6.73828125 1.26953125 C9.23445587 2.07572236 10.32422106 3.02052002 12 5 C10.02 5 8.04 5 6 5 C6 4.34 6 3.68 6 3 C3.03 2.505 3.03 2.505 0 2 C0 1.34 0 0.68 0 0 Z " fill="#94B259" transform="translate(46,102)"/>
<path d="M0 0 C0.33 0 0.66 0 1 0 C1.375 2.1875 1.375 2.1875 1 5 C-0.82869674 7.08832653 -2.69052559 8.38336791 -5 10 C-5.66 10 -6.32 10 -7 10 C-5.32971708 6.05205855 -2.8204435 3.18203882 0 0 Z " fill="#3F8C61" transform="translate(148,87)"/>
<path d="M0 0 C0.99 0.33 1.98 0.66 3 1 C0.03 3.64 -2.94 6.28 -6 9 C-6.33 8.01 -6.66 7.02 -7 6 C-6.34 6 -5.68 6 -5 6 C-5 5.34 -5 4.68 -5 4 C-4.34 4 -3.68 4 -3 4 C-2.67 3.01 -2.34 2.02 -2 1 C-1.34 0.67 -0.68 0.34 0 0 Z " fill="#1A3F67" transform="translate(105,279)"/>
<path d="M0 0 C0 3 0 3 -1.64453125 4.7890625 C-2.35996094 5.39492187 -3.07539063 6.00078125 -3.8125 6.625 C-4.52019531 7.23601562 -5.22789062 7.84703125 -5.95703125 8.4765625 C-8 10 -8 10 -11 11 C-11 10.34 -11 9.68 -11 9 C-10.030625 8.360625 -9.06125 7.72125 -8.0625 7.0625 C-4.75744775 5.28938993 -4.75744775 5.28938993 -4 2 C-1.9375 0.8125 -1.9375 0.8125 0 0 Z " fill="#68C38D" transform="translate(153,109)"/>
<path d="M0 0 C1.98 0 3.96 0 6 0 C6 0.99 6 1.98 6 3 C5.34 3 4.68 3 4 3 C4 3.66 4 4.32 4 5 C2.68 5.33 1.36 5.66 0 6 C0 4.02 0 2.04 0 0 Z " fill="#084E8F" transform="translate(96,280)"/>
<path d="M0 0 C1.98 0 3.96 0 6 0 C3.25604436 2.94721162 0.61662784 5.19168608 -3 7 C-3.66 6.67 -4.32 6.34 -5 6 C-3.625 4.5 -3.625 4.5 -2 3 C-1.34 3 -0.68 3 0 3 C0 2.01 0 1.02 0 0 Z " fill="#329DB7" transform="translate(137,208)"/>
<path d="M0 0 C1.32 1.32 2.64 2.64 4 4 C3.34 5.32 2.68 6.64 2 8 C1.34 8 0.68 8 0 8 C-0.144375 7.401875 -0.28875 6.80375 -0.4375 6.1875 C-0.8872439 4.43849596 -1.42892341 2.71322977 -2 1 C-1.34 0.67 -0.68 0.34 0 0 Z " fill="#185485" transform="translate(200,202)"/>
<path d="M0 0 C0.99 0 1.98 0 3 0 C1.63629701 2.99220268 0.05091917 5.29026529 -2.125 7.75 C-2.93324219 8.67039063 -2.93324219 8.67039063 -3.7578125 9.609375 C-4.16773438 10.06828125 -4.57765625 10.5271875 -5 11 C-5.66 10.67 -6.32 10.34 -7 10 C-5.625 8 -5.625 8 -4 6 C-3.34 6 -2.68 6 -2 6 C-1.34 4.02 -0.68 2.04 0 0 Z " fill="#38BED5" transform="translate(181,136)"/>
<path d="M0 0 C0.66 0.33 1.32 0.66 2 1 C2.625 3.5625 2.625 3.5625 3 6 C2.01 6 1.02 6 0 6 C-0.66 7.32 -1.32 8.64 -2 10 C-4 7 -4 7 -4 5 C-3.02149805 3.97895449 -2.02019573 2.9793879 -1 2 C-0.67 1.34 -0.34 0.68 0 0 Z " fill="#29A554" transform="translate(50,125)"/>
<path d="M0 0 C1.13199353 0.9080162 2.25532363 1.82683826 3.375 2.75 C4.00148437 3.26046875 4.62796875 3.7709375 5.2734375 4.296875 C7.08312318 6.08199481 8.00117455 7.67949644 9 10 C5.02743602 7.90336901 2.56101511 5.69924405 0 2 C0 1.34 0 0.68 0 0 Z " fill="#469996" transform="translate(132,88)"/>
<path d="M0 0 C0.66 1.32 1.32 2.64 2 4 C-0.31 5.98 -2.62 7.96 -5 10 C-4.49380917 6.25418786 -3.84235245 4.48705839 -1 2 C-0.67 1.34 -0.34 0.68 0 0 Z " fill="#3BB1C9" transform="translate(81,92)"/>
<path d="M0 0 C-0.75 5.75 -0.75 5.75 -3 8 C-3 7.01 -3 6.02 -3 5 C-3.99 4.67 -4.98 4.34 -6 4 C-2.25 0 -2.25 0 0 0 Z " fill="#5B939D" transform="translate(96,70)"/>
<path d="M0 0 C1.75 0.125 1.75 0.125 4 1 C6.25 4.0625 6.25 4.0625 8 7 C7.01 7 6.02 7 5 7 C4.34 5.68 3.68 4.36 3 3 C2.01 3 1.02 3 0 3 C0 2.01 0 1.02 0 0 Z " fill="#31AA57" transform="translate(17,161)"/>
<path d="M0 0 C0.66 1.32 1.32 2.64 2 4 C2.66 4 3.32 4 4 4 C4.33 5.32 4.66 6.64 5 8 C4.01 8.33 3.02 8.66 2 9 C0.14223235 5.86501708 -0.20140476 3.62528568 0 0 Z " fill="#519757" transform="translate(14,153)"/>
<path d="M0 0 C1.32 0 2.64 0 4 0 C4.33 0.99 4.66 1.98 5 3 C3.02 4.32 1.04 5.64 -1 7 C-1.66 6.67 -2.32 6.34 -3 6 C-2.505 5.566875 -2.01 5.13375 -1.5 4.6875 C0.33218192 3.00259517 0.33218192 3.00259517 0 0 Z " fill="#155B94" transform="translate(155,233)"/>
<path d="M0 0 C0.33 0.99 0.66 1.98 1 3 C2.32 3 3.64 3 5 3 C4.67 3.99 4.34 4.98 4 6 C2.35 5.67 0.7 5.34 -1 5 C-1 2 -1 2 0 0 Z " fill="#3DA46D" transform="translate(152,103)"/>
<path d="M0 0 C3.125 0.375 3.125 0.375 6 1 C6.33 2.32 6.66 3.64 7 5 C4.03 4.01 1.06 3.02 -2 2 C-1.34 1.34 -0.68 0.68 0 0 Z " fill="#90B55E" transform="translate(141,69)"/>
<path d="M0 0 C0 3.69418201 -1.28179295 5.77836178 -3 9 C-3.66 8.34 -4.32 7.68 -5 7 C-3.75023244 3.34683329 -3.32901247 2.21934164 0 0 Z " fill="#11497C" transform="translate(96,252)"/>
<path d="M0 0 C1.52519276 0.08937803 3.04681929 0.24537146 4.5625 0.4375 C5.80193359 0.59025391 5.80193359 0.59025391 7.06640625 0.74609375 C7.70449219 0.82988281 8.34257812 0.91367188 9 1 C8.67 1.99 8.34 2.98 8 4 C7.401875 3.649375 6.80375 3.29875 6.1875 2.9375 C3.89186786 1.66695302 3.89186786 1.66695302 1 3 C0.34 2.34 -0.32 1.68 -1 1 C-0.67 0.67 -0.34 0.34 0 0 Z " fill="#1A6FAC" transform="translate(196,201)"/>
<path d="M0 0 C2 1 2 1 3 3 C2.195625 3.12375 1.39125 3.2475 0.5625 3.375 C-0.7059375 3.684375 -0.7059375 3.684375 -2 4 C-2.33 4.66 -2.66 5.32 -3 6 C-3 4.68 -3 3.36 -3 2 C-2.01 1.34 -1.02 0.68 0 0 Z " fill="#2068A9" transform="translate(168,196)"/>
<path d="M0 0 C0.5534764 2.07553648 1 3.84365964 1 6 C-0.98 5.34 -2.96 4.68 -5 4 C-5 3.01 -5 2.02 -5 1 C-4.01 1 -3.02 1 -2 1 C-1.34 0.67 -0.68 0.34 0 0 Z " fill="#78BD4C" transform="translate(82,176)"/>
<path d="M0 0 C1 3 1 3 1 6 C0.01 6.495 0.01 6.495 -1 7 C-2.13350534 9.01669827 -2.13350534 9.01669827 -3 11 C-4 8 -4 8 -3.22265625 5.95703125 C-2.83980469 5.24933594 -2.45695313 4.54164063 -2.0625 3.8125 C-1.68222656 3.09707031 -1.30195313 2.38164062 -0.91015625 1.64453125 C-0.60980469 1.10183594 -0.30945313 0.55914062 0 0 Z " fill="#1E73B2" transform="translate(207,150)"/>
<path d="M0 0 C5.875 3.75 5.875 3.75 7 6 C2.25 5.25 2.25 5.25 0 3 C0 2.01 0 1.02 0 0 Z " fill="#529045" transform="translate(54,121)"/>
<path d="M0 0 C4.13333333 6.2 4.13333333 6.2 3.625 9.25 C3.41875 9.8275 3.2125 10.405 3 11 C-1.06153846 4.6 -1.06153846 4.6 -0.75 1.5625 C-0.5025 1.046875 -0.255 0.53125 0 0 Z " fill="#38BBD3" transform="translate(203,97)"/>
<path d="M0 0 C2.475 0.495 2.475 0.495 5 1 C5 1.99 5 2.98 5 4 C3.35 4.33 1.7 4.66 0 5 C0 3.35 0 1.7 0 0 Z " fill="#93BD51" transform="translate(113,82)"/>
<path d="M0 0 C3.25543229 0.34879632 4.01873107 1.02133261 6.25 3.5625 C6.8275 4.366875 7.405 5.17125 8 6 C6.68 6 5.36 6 4 6 C4 5.34 4 4.68 4 4 C3.34 4 2.68 4 2 4 C2 3.01 2 2.02 2 1 C1.34 0.67 0.68 0.34 0 0 Z " fill="#98B560" transform="translate(157,61)"/>
<path d="M0 0 C-1.65 0.33 -3.3 0.66 -5 1 C-5 1.66 -5 2.32 -5 3 C-5.99 2.67 -6.98 2.34 -8 2 C-8 1.01 -8 0.02 -8 -1 C-3.375 -2.25 -3.375 -2.25 0 0 Z " fill="#105B98" transform="translate(152,242)"/>
<path d="M0 0 C1.65 0.33 3.3 0.66 5 1 C4.67 2.32 4.34 3.64 4 5 C2.35 4.67 0.7 4.34 -1 4 C-0.67 2.68 -0.34 1.36 0 0 Z " fill="#359D67" transform="translate(167,235)"/>
<path d="M0 0 C0.99 0.33 1.98 0.66 3 1 C2 4 2 4 -1.0625 5.6875 C-2.031875 6.120625 -3.00125 6.55375 -4 7 C-4 6.01 -4 5.02 -4 4 C-3.01 4 -2.02 4 -1 4 C-0.67 2.68 -0.34 1.36 0 0 Z " fill="#33B9D5" transform="translate(130,211)"/>
<path d="M0 0 C2.475 0.495 2.475 0.495 5 1 C5 1.66 5 2.32 5 3 C5.99 3.33 6.98 3.66 8 4 C8 4.66 8 5.32 8 6 C6.68 5.67 5.36 5.34 4 5 C4 4.34 4 3.68 4 3 C2.68 2.34 1.36 1.68 0 1 C0 0.67 0 0.34 0 0 Z " fill="#42C0A3" transform="translate(130,112)"/>
<path d="M0 0 C3.36720387 1.39332574 4.9859524 2.9789286 7 6 C4.03 5.505 4.03 5.505 1 5 C0.67 3.35 0.34 1.7 0 0 Z " fill="#53A5B3" transform="translate(186,71)"/>
<path d="M0 0 C2.475 0.495 2.475 0.495 5 1 C4.01 2.485 4.01 2.485 3 4 C2.34 4 1.68 4 1 4 C0.67 4.66 0.34 5.32 0 6 C0 4.02 0 2.04 0 0 Z " fill="#0F4A87" transform="translate(81,297)"/>
<path d="M0 0 C2 0 2 0 4.625 2.5 C5.40875 3.325 6.1925 4.15 7 5 C6.67 5.99 6.34 6.98 6 8 C4.9970458 6.85675161 3.99770973 5.71032809 3 4.5625 C2.443125 3.92441406 1.88625 3.28632813 1.3125 2.62890625 C0 1 0 1 0 0 Z " fill="#3C8C5C" transform="translate(165,271)"/>
<path d="M0 0 C3.57104439 1.87949705 5.54744301 3.17053157 7 7 C6.01 7.33 5.02 7.66 4 8 C3.71125 7.195625 3.4225 6.39125 3.125 5.5625 C2.26737432 2.8673532 2.26737432 2.8673532 0 2 C0 1.34 0 0.68 0 0 Z " fill="#329A4E" transform="translate(183,250)"/>
<path d="M0 0 C2.0625 0.4375 2.0625 0.4375 4 1 C3.67 1.99 3.34 2.98 3 4 C2.01 4.33 1.02 4.66 0 5 C-0.5625 3.0625 -0.5625 3.0625 -1 1 C-0.67 0.67 -0.34 0.34 0 0 Z " fill="#185D9A" transform="translate(163,226)"/>
<path d="M0 0 C0 0.66 0 1.32 0 2 C-2.64 2.99 -5.28 3.98 -8 5 C-8 4.34 -8 3.68 -8 3 C-5.04518508 0.25624329 -4.22528092 0 0 0 Z " fill="#39BDDD" transform="translate(124,181)"/>
<path d="M0 0 C5.75 0.75 5.75 0.75 8 3 C5.6875 3.625 5.6875 3.625 3 4 C2.01 3.34 1.02 2.68 0 2 C0 1.34 0 0.68 0 0 Z " fill="#539E4C" transform="translate(68,176)"/>
</svg>
